<?xml version="1.0" encoding="utf-8" standalone="no"?>
<!DOCTYPE svg PUBLIC "-//W3C//DTD SVG 1.1//EN"
  "http://www.w3.org/Graphics/SVG/1.1/DTD/svg11.dtd">
<svg xmlns:xlink="http://www.w3.org/1999/xlink" width="411.285625pt" height="310.86825pt" viewBox="0 0 411.285625 310.86825" xmlns="http://www.w3.org/2000/svg" version="1.1">
 <metadata>
  <rdf:RDF xmlns:dc="http://purl.org/dc/elements/1.1/" xmlns:cc="http://creativecommons.org/ns#" xmlns:rdf="http://www.w3.org/1999/02/22-rdf-syntax-ns#">
   <cc:Work>
    <dc:type rdf:resource="http://purl.org/dc/dcmitype/StillImage"/>
    <dc:date>2024-01-07T19:08:34.212753</dc:date>
    <dc:format>image/svg+xml</dc:format>
    <dc:creator>
     <cc:Agent>
      <dc:title>Matplotlib v3.7.0, https://matplotlib.org/</dc:title>
     </cc:Agent>
    </dc:creator>
   </cc:Work>
  </rdf:RDF>
 </metadata>
 <defs>
  <style type="text/css">*{stroke-linejoin: round; stroke-linecap: butt}</style>
 </defs>
 <g id="figure_1">
  <g id="patch_1">
   <path d="M 0 310.86825 
L 411.285625 310.86825 
L 411.285625 0 
L 0 0 
z
" style="fill: #ffffff"/>
  </g>
  <g id="axes_1">
   <g id="patch_2">
    <path d="M 46.965625 273.312 
L 404.085625 273.312 
L 404.085625 7.2 
L 46.965625 7.2 
z
" style="fill: #ffffff"/>
   </g>
   <g id="PathCollection_1">
    <defs>
     <path id="mba6a9df430" d="M 0 3 
C 0.795609 3 1.55874 2.683901 2.12132 2.12132 
C 2.683901 1.55874 3 0.795609 3 0 
C 3 -0.795609 2.683901 -1.55874 2.12132 -2.12132 
C 1.55874 -2.683901 0.795609 -3 0 -3 
C -0.795609 -3 -1.55874 -2.683901 -2.12132 -2.12132 
C -2.683901 -1.55874 -3 -0.795609 -3 0 
C -3 0.795609 -2.683901 1.55874 -2.12132 2.12132 
C -1.55874 2.683901 -0.795609 3 0 3 
z
" style="stroke: #1f77b4"/>
    </defs>
    <g clip-path="url(#p324837ebdd)">
     <use xlink:href="#mba6a9df430" x="186.818842" y="19.296" style="fill: #1f77b4; stroke: #1f77b4"/>
     <use xlink:href="#mba6a9df430" x="384.547903" y="19.296" style="fill: #1f77b4; stroke: #1f77b4"/>
     <use xlink:href="#mba6a9df430" x="261.982515" y="137.8368" style="fill: #1f77b4; stroke: #1f77b4"/>
     <use xlink:href="#mba6a9df430" x="113.833136" y="33.8112" style="fill: #1f77b4; stroke: #1f77b4"/>
     <use xlink:href="#mba6a9df430" x="163.047843" y="79.776" style="fill: #1f77b4; stroke: #1f77b4"/>
     <use xlink:href="#mba6a9df430" x="134.632612" y="19.296" style="fill: #1f77b4; stroke: #1f77b4"/>
     <use xlink:href="#mba6a9df430" x="188.91894" y="132.9984" style="fill: #1f77b4; stroke: #1f77b4"/>
     <use xlink:href="#mba6a9df430" x="266.986373" y="164.448" style="fill: #1f77b4; stroke: #1f77b4"/>
     <use xlink:href="#mba6a9df430" x="184.349606" y="145.0944" style="fill: #1f77b4; stroke: #1f77b4"/>
     <use xlink:href="#mba6a9df430" x="269.910937" y="152.352" style="fill: #1f77b4; stroke: #1f77b4"/>
     <use xlink:href="#mba6a9df430" x="272.732666" y="19.296" style="fill: #1f77b4; stroke: #1f77b4"/>
     <use xlink:href="#mba6a9df430" x="73.006341" y="19.296" style="fill: #1f77b4; stroke: #1f77b4"/>
     <use xlink:href="#mba6a9df430" x="257.479756" y="256.3776" style="fill: #1f77b4; stroke: #1f77b4"/>
     <use xlink:href="#mba6a9df430" x="63.198352" y="261.216" style="fill: #1f77b4; stroke: #1f77b4"/>
     <use xlink:href="#mba6a9df430" x="238.906397" y="261.216" style="fill: #1f77b4; stroke: #1f77b4"/>
     <use xlink:href="#mba6a9df430" x="183.371185" y="33.8112" style="fill: #1f77b4; stroke: #1f77b4"/>
     <use xlink:href="#mba6a9df430" x="252.426561" y="246.7008" style="fill: #1f77b4; stroke: #1f77b4"/>
     <use xlink:href="#mba6a9df430" x="114.362173" y="19.296" style="fill: #1f77b4; stroke: #1f77b4"/>
     <use xlink:href="#mba6a9df430" x="330.688965" y="217.6704" style="fill: #1f77b4; stroke: #1f77b4"/>
     <use xlink:href="#mba6a9df430" x="251.50996" y="19.296" style="fill: #1f77b4; stroke: #1f77b4"/>
     <use xlink:href="#mba6a9df430" x="187.27952" y="212.832" style="fill: #1f77b4; stroke: #1f77b4"/>
     <use xlink:href="#mba6a9df430" x="263.393677" y="169.2864" style="fill: #1f77b4; stroke: #1f77b4"/>
     <use xlink:href="#mba6a9df430" x="262.878311" y="79.776" style="fill: #1f77b4; stroke: #1f77b4"/>
     <use xlink:href="#mba6a9df430" x="164.052418" y="19.296" style="fill: #1f77b4; stroke: #1f77b4"/>
     <use xlink:href="#mba6a9df430" x="373.865516" y="125.7408" style="fill: #1f77b4; stroke: #1f77b4"/>
     <use xlink:href="#mba6a9df430" x="262.924676" y="70.0992" style="fill: #1f77b4; stroke: #1f77b4"/>
     <use xlink:href="#mba6a9df430" x="263.221888" y="89.4528" style="fill: #1f77b4; stroke: #1f77b4"/>
     <use xlink:href="#mba6a9df430" x="146.337407" y="149.9328" style="fill: #1f77b4; stroke: #1f77b4"/>
     <use xlink:href="#mba6a9df430" x="368.236919" y="21.7152" style="fill: #1f77b4; stroke: #1f77b4"/>
     <use xlink:href="#mba6a9df430" x="385.375935" y="21.7152" style="fill: #1f77b4; stroke: #1f77b4"/>
     <use xlink:href="#mba6a9df430" x="317.851199" y="19.296" style="fill: #1f77b4; stroke: #1f77b4"/>
     <use xlink:href="#mba6a9df430" x="344.535468" y="256.3776" style="fill: #1f77b4; stroke: #1f77b4"/>
     <use xlink:href="#mba6a9df430" x="254.206266" y="33.8112" style="fill: #1f77b4; stroke: #1f77b4"/>
     <use xlink:href="#mba6a9df430" x="268.020075" y="164.448" style="fill: #1f77b4; stroke: #1f77b4"/>
     <use xlink:href="#mba6a9df430" x="267.631917" y="164.448" style="fill: #1f77b4; stroke: #1f77b4"/>
     <use xlink:href="#mba6a9df430" x="335.880661" y="60.4224" style="fill: #1f77b4; stroke: #1f77b4"/>
     <use xlink:href="#mba6a9df430" x="111.941086" y="19.296" style="fill: #1f77b4; stroke: #1f77b4"/>
     <use xlink:href="#mba6a9df430" x="192.691747" y="43.488" style="fill: #1f77b4; stroke: #1f77b4"/>
     <use xlink:href="#mba6a9df430" x="295.221493" y="19.296" style="fill: #1f77b4; stroke: #1f77b4"/>
     <use xlink:href="#mba6a9df430" x="118.9749" y="19.296" style="fill: #1f77b4; stroke: #1f77b4"/>
     <use xlink:href="#mba6a9df430" x="183.674935" y="87.0336" style="fill: #1f77b4; stroke: #1f77b4"/>
     <use xlink:href="#mba6a9df430" x="179.903318" y="207.9936" style="fill: #1f77b4; stroke: #1f77b4"/>
     <use xlink:href="#mba6a9df430" x="263.221888" y="19.296" style="fill: #1f77b4; stroke: #1f77b4"/>
     <use xlink:href="#mba6a9df430" x="134.05721" y="79.776" style="fill: #1f77b4; stroke: #1f77b4"/>
     <use xlink:href="#mba6a9df430" x="178.913008" y="258.7968" style="fill: #1f77b4; stroke: #1f77b4"/>
     <use xlink:href="#mba6a9df430" x="165.33994" y="261.216" style="fill: #1f77b4; stroke: #1f77b4"/>
     <use xlink:href="#mba6a9df430" x="366.352002" y="21.7152" style="fill: #1f77b4; stroke: #1f77b4"/>
     <use xlink:href="#mba6a9df430" x="265.672697" y="251.5392" style="fill: #1f77b4; stroke: #1f77b4"/>
     <use xlink:href="#mba6a9df430" x="268.822547" y="210.4128" style="fill: #1f77b4; stroke: #1f77b4"/>
     <use xlink:href="#mba6a9df430" x="217.946427" y="256.3776" style="fill: #1f77b4; stroke: #1f77b4"/>
     <use xlink:href="#mba6a9df430" x="230.539885" y="135.4176" style="fill: #1f77b4; stroke: #1f77b4"/>
     <use xlink:href="#mba6a9df430" x="238.561631" y="84.6144" style="fill: #1f77b4; stroke: #1f77b4"/>
     <use xlink:href="#mba6a9df430" x="355.258275" y="65.2608" style="fill: #1f77b4; stroke: #1f77b4"/>
     <use xlink:href="#mba6a9df430" x="267.878008" y="103.968" style="fill: #1f77b4; stroke: #1f77b4"/>
     <use xlink:href="#mba6a9df430" x="248.064087" y="258.7968" style="fill: #1f77b4; stroke: #1f77b4"/>
     <use xlink:href="#mba6a9df430" x="131.555876" y="50.7456" style="fill: #1f77b4; stroke: #1f77b4"/>
     <use xlink:href="#mba6a9df430" x="336.051855" y="261.216" style="fill: #1f77b4; stroke: #1f77b4"/>
     <use xlink:href="#mba6a9df430" x="358.038988" y="103.968" style="fill: #1f77b4; stroke: #1f77b4"/>
     <use xlink:href="#mba6a9df430" x="189.272028" y="19.296" style="fill: #1f77b4; stroke: #1f77b4"/>
     <use xlink:href="#mba6a9df430" x="187.325885" y="79.776" style="fill: #1f77b4; stroke: #1f77b4"/>
     <use xlink:href="#mba6a9df430" x="380.644917" y="43.488" style="fill: #1f77b4; stroke: #1f77b4"/>
     <use xlink:href="#mba6a9df430" x="330.886908" y="38.6496" style="fill: #1f77b4; stroke: #1f77b4"/>
     <use xlink:href="#mba6a9df430" x="142.778593" y="176.544" style="fill: #1f77b4; stroke: #1f77b4"/>
     <use xlink:href="#mba6a9df430" x="209.5389" y="28.9728" style="fill: #1f77b4; stroke: #1f77b4"/>
     <use xlink:href="#mba6a9df430" x="376.919665" y="43.488" style="fill: #1f77b4; stroke: #1f77b4"/>
     <use xlink:href="#mba6a9df430" x="383.790607" y="21.7152" style="fill: #1f77b4; stroke: #1f77b4"/>
     <use xlink:href="#mba6a9df430" x="336.37641" y="111.2256" style="fill: #1f77b4; stroke: #1f77b4"/>
     <use xlink:href="#mba6a9df430" x="161.476187" y="19.296" style="fill: #1f77b4; stroke: #1f77b4"/>
     <use xlink:href="#mba6a9df430" x="268.670969" y="33.8112" style="fill: #1f77b4; stroke: #1f77b4"/>
     <use xlink:href="#mba6a9df430" x="332.810463" y="212.832" style="fill: #1f77b4; stroke: #1f77b4"/>
     <use xlink:href="#mba6a9df430" x="219.234543" y="217.6704" style="fill: #1f77b4; stroke: #1f77b4"/>
     <use xlink:href="#mba6a9df430" x="356.249179" y="19.296" style="fill: #1f77b4; stroke: #1f77b4"/>
     <use xlink:href="#mba6a9df430" x="292.452668" y="26.5536" style="fill: #1f77b4; stroke: #1f77b4"/>
     <use xlink:href="#mba6a9df430" x="340.526675" y="94.2912" style="fill: #1f77b4; stroke: #1f77b4"/>
     <use xlink:href="#mba6a9df430" x="202.095528" y="55.584" style="fill: #1f77b4; stroke: #1f77b4"/>
     <use xlink:href="#mba6a9df430" x="247.964818" y="212.832" style="fill: #1f77b4; stroke: #1f77b4"/>
     <use xlink:href="#mba6a9df430" x="329.896598" y="19.296" style="fill: #1f77b4; stroke: #1f77b4"/>
     <use xlink:href="#mba6a9df430" x="241.128947" y="261.216" style="fill: #1f77b4; stroke: #1f77b4"/>
     <use xlink:href="#mba6a9df430" x="378.561463" y="19.296" style="fill: #1f77b4; stroke: #1f77b4"/>
     <use xlink:href="#mba6a9df430" x="187.630824" y="229.7664" style="fill: #1f77b4; stroke: #1f77b4"/>
     <use xlink:href="#mba6a9df430" x="290.961854" y="149.9328" style="fill: #1f77b4; stroke: #1f77b4"/>
     <use xlink:href="#mba6a9df430" x="387.852898" y="19.296" style="fill: #1f77b4; stroke: #1f77b4"/>
     <use xlink:href="#mba6a9df430" x="305.930034" y="43.488" style="fill: #1f77b4; stroke: #1f77b4"/>
     <use xlink:href="#mba6a9df430" x="177.228412" y="258.7968" style="fill: #1f77b4; stroke: #1f77b4"/>
     <use xlink:href="#mba6a9df430" x="82.085567" y="212.832" style="fill: #1f77b4; stroke: #1f77b4"/>
     <use xlink:href="#mba6a9df430" x="260.307429" y="234.6048" style="fill: #1f77b4; stroke: #1f77b4"/>
     <use xlink:href="#mba6a9df430" x="285.10797" y="19.296" style="fill: #1f77b4; stroke: #1f77b4"/>
     <use xlink:href="#mba6a9df430" x="349.444812" y="38.6496" style="fill: #1f77b4; stroke: #1f77b4"/>
     <use xlink:href="#mba6a9df430" x="199.024141" y="261.216" style="fill: #1f77b4; stroke: #1f77b4"/>
     <use xlink:href="#mba6a9df430" x="188.638967" y="19.296" style="fill: #1f77b4; stroke: #1f77b4"/>
     <use xlink:href="#mba6a9df430" x="116.299994" y="261.216" style="fill: #1f77b4; stroke: #1f77b4"/>
     <use xlink:href="#mba6a9df430" x="192.713146" y="261.216" style="fill: #1f77b4; stroke: #1f77b4"/>
     <use xlink:href="#mba6a9df430" x="373.639635" y="60.4224" style="fill: #1f77b4; stroke: #1f77b4"/>
     <use xlink:href="#mba6a9df430" x="118.032739" y="164.448" style="fill: #1f77b4; stroke: #1f77b4"/>
     <use xlink:href="#mba6a9df430" x="348.019979" y="19.296" style="fill: #1f77b4; stroke: #1f77b4"/>
     <use xlink:href="#mba6a9df430" x="274.342365" y="176.544" style="fill: #1f77b4; stroke: #1f77b4"/>
     <use xlink:href="#mba6a9df430" x="210.892997" y="261.216" style="fill: #1f77b4; stroke: #1f77b4"/>
     <use xlink:href="#mba6a9df430" x="383.514794" y="60.4224" style="fill: #1f77b4; stroke: #1f77b4"/>
     <use xlink:href="#mba6a9df430" x="114.715261" y="19.296" style="fill: #1f77b4; stroke: #1f77b4"/>
     <use xlink:href="#mba6a9df430" x="268.745272" y="55.584" style="fill: #1f77b4; stroke: #1f77b4"/>
     <use xlink:href="#mba6a9df430" x="321.269134" y="178.9632" style="fill: #1f77b4; stroke: #1f77b4"/>
     <use xlink:href="#mba6a9df430" x="336.633201" y="24.1344" style="fill: #1f77b4; stroke: #1f77b4"/>
     <use xlink:href="#mba6a9df430" x="183.368213" y="195.8976" style="fill: #1f77b4; stroke: #1f77b4"/>
     <use xlink:href="#mba6a9df430" x="159.808234" y="60.4224" style="fill: #1f77b4; stroke: #1f77b4"/>
     <use xlink:href="#mba6a9df430" x="140.059105" y="135.4176" style="fill: #1f77b4; stroke: #1f77b4"/>
     <use xlink:href="#mba6a9df430" x="270.019716" y="222.5088" style="fill: #1f77b4; stroke: #1f77b4"/>
     <use xlink:href="#mba6a9df430" x="265.698851" y="19.296" style="fill: #1f77b4; stroke: #1f77b4"/>
     <use xlink:href="#mba6a9df430" x="363.481531" y="28.9728" style="fill: #1f77b4; stroke: #1f77b4"/>
     <use xlink:href="#mba6a9df430" x="359.41924" y="19.296" style="fill: #1f77b4; stroke: #1f77b4"/>
     <use xlink:href="#mba6a9df430" x="357.092072" y="19.296" style="fill: #1f77b4; stroke: #1f77b4"/>
     <use xlink:href="#mba6a9df430" x="116.255413" y="28.9728" style="fill: #1f77b4; stroke: #1f77b4"/>
     <use xlink:href="#mba6a9df430" x="295.112713" y="19.296" style="fill: #1f77b4; stroke: #1f77b4"/>
     <use xlink:href="#mba6a9df430" x="355.950778" y="84.6144" style="fill: #1f77b4; stroke: #1f77b4"/>
     <use xlink:href="#mba6a9df430" x="241.578331" y="125.7408" style="fill: #1f77b4; stroke: #1f77b4"/>
     <use xlink:href="#mba6a9df430" x="377.436813" y="19.296" style="fill: #1f77b4; stroke: #1f77b4"/>
     <use xlink:href="#mba6a9df430" x="296.608878" y="19.296" style="fill: #1f77b4; stroke: #1f77b4"/>
     <use xlink:href="#mba6a9df430" x="170.689752" y="261.216" style="fill: #1f77b4; stroke: #1f77b4"/>
     <use xlink:href="#mba6a9df430" x="384.85522" y="19.296" style="fill: #1f77b4; stroke: #1f77b4"/>
     <use xlink:href="#mba6a9df430" x="183.965609" y="19.296" style="fill: #1f77b4; stroke: #1f77b4"/>
     <use xlink:href="#mba6a9df430" x="345.795646" y="58.0032" style="fill: #1f77b4; stroke: #1f77b4"/>
     <use xlink:href="#mba6a9df430" x="182.47955" y="19.296" style="fill: #1f77b4; stroke: #1f77b4"/>
     <use xlink:href="#mba6a9df430" x="261.933772" y="166.8672" style="fill: #1f77b4; stroke: #1f77b4"/>
     <use xlink:href="#mba6a9df430" x="335.371834" y="261.216" style="fill: #1f77b4; stroke: #1f77b4"/>
     <use xlink:href="#mba6a9df430" x="201.170605" y="19.296" style="fill: #1f77b4; stroke: #1f77b4"/>
     <use xlink:href="#mba6a9df430" x="289.673738" y="137.8368" style="fill: #1f77b4; stroke: #1f77b4"/>
     <use xlink:href="#mba6a9df430" x="354.495629" y="164.448" style="fill: #1f77b4; stroke: #1f77b4"/>
     <use xlink:href="#mba6a9df430" x="386.813251" y="222.5088" style="fill: #1f77b4; stroke: #1f77b4"/>
     <use xlink:href="#mba6a9df430" x="379.582682" y="106.3872" style="fill: #1f77b4; stroke: #1f77b4"/>
     <use xlink:href="#mba6a9df430" x="363.282993" y="21.7152" style="fill: #1f77b4; stroke: #1f77b4"/>
     <use xlink:href="#mba6a9df430" x="321.61925" y="60.4224" style="fill: #1f77b4; stroke: #1f77b4"/>
     <use xlink:href="#mba6a9df430" x="365.492466" y="26.5536" style="fill: #1f77b4; stroke: #1f77b4"/>
     <use xlink:href="#mba6a9df430" x="325.041941" y="41.0688" style="fill: #1f77b4; stroke: #1f77b4"/>
     <use xlink:href="#mba6a9df430" x="337.741206" y="31.392" style="fill: #1f77b4; stroke: #1f77b4"/>
     <use xlink:href="#mba6a9df430" x="362.157155" y="62.8416" style="fill: #1f77b4; stroke: #1f77b4"/>
     <use xlink:href="#mba6a9df430" x="264.486227" y="130.5792" style="fill: #1f77b4; stroke: #1f77b4"/>
     <use xlink:href="#mba6a9df430" x="307.506445" y="261.216" style="fill: #1f77b4; stroke: #1f77b4"/>
     <use xlink:href="#mba6a9df430" x="239.345676" y="132.9984" style="fill: #1f77b4; stroke: #1f77b4"/>
     <use xlink:href="#mba6a9df430" x="384.618045" y="45.9072" style="fill: #1f77b4; stroke: #1f77b4"/>
     <use xlink:href="#mba6a9df430" x="317.925502" y="36.2304" style="fill: #1f77b4; stroke: #1f77b4"/>
     <use xlink:href="#mba6a9df430" x="142.553901" y="19.296" style="fill: #1f77b4; stroke: #1f77b4"/>
     <use xlink:href="#mba6a9df430" x="345.549555" y="31.392" style="fill: #1f77b4; stroke: #1f77b4"/>
     <use xlink:href="#mba6a9df430" x="164.052418" y="19.296" style="fill: #1f77b4; stroke: #1f77b4"/>
     <use xlink:href="#mba6a9df430" x="202.335081" y="67.68" style="fill: #1f77b4; stroke: #1f77b4"/>
     <use xlink:href="#mba6a9df430" x="229.72493" y="244.2816" style="fill: #1f77b4; stroke: #1f77b4"/>
     <use xlink:href="#mba6a9df430" x="290.862585" y="79.776" style="fill: #1f77b4; stroke: #1f77b4"/>
     <use xlink:href="#mba6a9df430" x="383.285941" y="55.584" style="fill: #1f77b4; stroke: #1f77b4"/>
     <use xlink:href="#mba6a9df430" x="368.541859" y="21.7152" style="fill: #1f77b4; stroke: #1f77b4"/>
     <use xlink:href="#mba6a9df430" x="339.856165" y="45.9072" style="fill: #1f77b4; stroke: #1f77b4"/>
     <use xlink:href="#mba6a9df430" x="271.976559" y="132.9984" style="fill: #1f77b4; stroke: #1f77b4"/>
     <use xlink:href="#mba6a9df430" x="361.73452" y="19.296" style="fill: #1f77b4; stroke: #1f77b4"/>
     <use xlink:href="#mba6a9df430" x="256.526895" y="53.1648" style="fill: #1f77b4; stroke: #1f77b4"/>
     <use xlink:href="#mba6a9df430" x="336.825794" y="38.6496" style="fill: #1f77b4; stroke: #1f77b4"/>
     <use xlink:href="#mba6a9df430" x="198.518881" y="19.296" style="fill: #1f77b4; stroke: #1f77b4"/>
     <use xlink:href="#mba6a9df430" x="262.033041" y="142.6752" style="fill: #1f77b4; stroke: #1f77b4"/>
     <use xlink:href="#mba6a9df430" x="255.682219" y="256.3776" style="fill: #1f77b4; stroke: #1f77b4"/>
     <use xlink:href="#mba6a9df430" x="374.106258" y="120.9024" style="fill: #1f77b4; stroke: #1f77b4"/>
     <use xlink:href="#mba6a9df430" x="263.221888" y="19.296" style="fill: #1f77b4; stroke: #1f77b4"/>
     <use xlink:href="#mba6a9df430" x="372.992308" y="19.296" style="fill: #1f77b4; stroke: #1f77b4"/>
     <use xlink:href="#mba6a9df430" x="336.414453" y="164.448" style="fill: #1f77b4; stroke: #1f77b4"/>
     <use xlink:href="#mba6a9df430" x="340.259185" y="21.7152" style="fill: #1f77b4; stroke: #1f77b4"/>
     <use xlink:href="#mba6a9df430" x="295.518705" y="19.296" style="fill: #1f77b4; stroke: #1f77b4"/>
     <use xlink:href="#mba6a9df430" x="340.776333" y="106.3872" style="fill: #1f77b4; stroke: #1f77b4"/>
     <use xlink:href="#mba6a9df430" x="213.785462" y="19.296" style="fill: #1f77b4; stroke: #1f77b4"/>
     <use xlink:href="#mba6a9df430" x="318.596606" y="36.2304" style="fill: #1f77b4; stroke: #1f77b4"/>
     <use xlink:href="#mba6a9df430" x="271.246607" y="120.9024" style="fill: #1f77b4; stroke: #1f77b4"/>
     <use xlink:href="#mba6a9df430" x="364.754192" y="19.296" style="fill: #1f77b4; stroke: #1f77b4"/>
     <use xlink:href="#mba6a9df430" x="335.543622" y="19.296" style="fill: #1f77b4; stroke: #1f77b4"/>
     <use xlink:href="#mba6a9df430" x="364.071199" y="33.8112" style="fill: #1f77b4; stroke: #1f77b4"/>
     <use xlink:href="#mba6a9df430" x="367.146747" y="58.0032" style="fill: #1f77b4; stroke: #1f77b4"/>
     <use xlink:href="#mba6a9df430" x="298.613274" y="21.7152" style="fill: #1f77b4; stroke: #1f77b4"/>
     <use xlink:href="#mba6a9df430" x="316.224856" y="164.448" style="fill: #1f77b4; stroke: #1f77b4"/>
     <use xlink:href="#mba6a9df430" x="268.097945" y="19.296" style="fill: #1f77b4; stroke: #1f77b4"/>
     <use xlink:href="#mba6a9df430" x="383.300207" y="24.1344" style="fill: #1f77b4; stroke: #1f77b4"/>
     <use xlink:href="#mba6a9df430" x="330.239581" y="50.7456" style="fill: #1f77b4; stroke: #1f77b4"/>
     <use xlink:href="#mba6a9df430" x="226.776589" y="55.584" style="fill: #1f77b4; stroke: #1f77b4"/>
     <use xlink:href="#mba6a9df430" x="386.077949" y="26.5536" style="fill: #1f77b4; stroke: #1f77b4"/>
     <use xlink:href="#mba6a9df430" x="347.233557" y="19.296" style="fill: #1f77b4; stroke: #1f77b4"/>
     <use xlink:href="#mba6a9df430" x="284.720406" y="21.7152" style="fill: #1f77b4; stroke: #1f77b4"/>
    </g>
   </g>
   <g id="matplotlib.axis_1">
    <g id="xtick_1">
     <g id="line2d_1">
      <defs>
       <path id="m5f48dccf6c" d="M 0 0 
L 0 3.5 
" style="stroke: #000000; stroke-width: 0.8"/>
      </defs>
      <g>
       <use xlink:href="#m5f48dccf6c" x="91.730684" y="273.312" style="stroke: #000000; stroke-width: 0.8"/>
      </g>
     </g>
     <g id="text_1">
      <!-- −50 -->
      <g transform="translate(81.178341 287.910437) scale(0.1 -0.1)">
       <defs>
        <path id="DejaVuSans-2212" d="M 678 2272 
L 4684 2272 
L 4684 1741 
L 678 1741 
L 678 2272 
z
" transform="scale(0.015625)"/>
        <path id="DejaVuSans-35" d="M 691 4666 
L 3169 4666 
L 3169 4134 
L 1269 4134 
L 1269 2991 
Q 1406 3038 1543 3061 
Q 1681 3084 1819 3084 
Q 2600 3084 3056 2656 
Q 3513 2228 3513 1497 
Q 3513 744 3044 326 
Q 2575 -91 1722 -91 
Q 1428 -91 1123 -41 
Q 819 9 494 109 
L 494 744 
Q 775 591 1075 516 
Q 1375 441 1709 441 
Q 2250 441 2565 725 
Q 2881 1009 2881 1497 
Q 2881 1984 2565 2268 
Q 2250 2553 1709 2553 
Q 1456 2553 1204 2497 
Q 953 2441 691 2322 
L 691 4666 
z
" transform="scale(0.015625)"/>
        <path id="DejaVuSans-30" d="M 2034 4250 
Q 1547 4250 1301 3770 
Q 1056 3291 1056 2328 
Q 1056 1369 1301 889 
Q 1547 409 2034 409 
Q 2525 409 2770 889 
Q 3016 1369 3016 2328 
Q 3016 3291 2770 3770 
Q 2525 4250 2034 4250 
z
M 2034 4750 
Q 2819 4750 3233 4129 
Q 3647 3509 3647 2328 
Q 3647 1150 3233 529 
Q 2819 -91 2034 -91 
Q 1250 -91 836 529 
Q 422 1150 422 2328 
Q 422 3509 836 4129 
Q 1250 4750 2034 4750 
z
" transform="scale(0.015625)"/>
       </defs>
       <use xlink:href="#DejaVuSans-2212"/>
       <use xlink:href="#DejaVuSans-35" x="83.789062"/>
       <use xlink:href="#DejaVuSans-30" x="147.412109"/>
      </g>
     </g>
    </g>
    <g id="xtick_2">
     <g id="line2d_2">
      <g>
       <use xlink:href="#m5f48dccf6c" x="151.173043" y="273.312" style="stroke: #000000; stroke-width: 0.8"/>
      </g>
     </g>
     <g id="text_2">
      <!-- −40 -->
      <g transform="translate(140.620699 287.910437) scale(0.1 -0.1)">
       <defs>
        <path id="DejaVuSans-34" d="M 2419 4116 
L 825 1625 
L 2419 1625 
L 2419 4116 
z
M 2253 4666 
L 3047 4666 
L 3047 1625 
L 3713 1625 
L 3713 1100 
L 3047 1100 
L 3047 0 
L 2419 0 
L 2419 1100 
L 313 1100 
L 313 1709 
L 2253 4666 
z
" transform="scale(0.015625)"/>
       </defs>
       <use xlink:href="#DejaVuSans-2212"/>
       <use xlink:href="#DejaVuSans-34" x="83.789062"/>
       <use xlink:href="#DejaVuSans-30" x="147.412109"/>
      </g>
     </g>
    </g>
    <g id="xtick_3">
     <g id="line2d_3">
      <g>
       <use xlink:href="#m5f48dccf6c" x="210.615401" y="273.312" style="stroke: #000000; stroke-width: 0.8"/>
      </g>
     </g>
     <g id="text_3">
      <!-- −30 -->
      <g transform="translate(200.063057 287.910437) scale(0.1 -0.1)">
       <defs>
        <path id="DejaVuSans-33" d="M 2597 2516 
Q 3050 2419 3304 2112 
Q 3559 1806 3559 1356 
Q 3559 666 3084 287 
Q 2609 -91 1734 -91 
Q 1441 -91 1130 -33 
Q 819 25 488 141 
L 488 750 
Q 750 597 1062 519 
Q 1375 441 1716 441 
Q 2309 441 2620 675 
Q 2931 909 2931 1356 
Q 2931 1769 2642 2001 
Q 2353 2234 1838 2234 
L 1294 2234 
L 1294 2753 
L 1863 2753 
Q 2328 2753 2575 2939 
Q 2822 3125 2822 3475 
Q 2822 3834 2567 4026 
Q 2313 4219 1838 4219 
Q 1578 4219 1281 4162 
Q 984 4106 628 3988 
L 628 4550 
Q 988 4650 1302 4700 
Q 1616 4750 1894 4750 
Q 2613 4750 3031 4423 
Q 3450 4097 3450 3541 
Q 3450 3153 3228 2886 
Q 3006 2619 2597 2516 
z
" transform="scale(0.015625)"/>
       </defs>
       <use xlink:href="#DejaVuSans-2212"/>
       <use xlink:href="#DejaVuSans-33" x="83.789062"/>
       <use xlink:href="#DejaVuSans-30" x="147.412109"/>
      </g>
     </g>
    </g>
    <g id="xtick_4">
     <g id="line2d_4">
      <g>
       <use xlink:href="#m5f48dccf6c" x="270.057759" y="273.312" style="stroke: #000000; stroke-width: 0.8"/>
      </g>
     </g>
     <g id="text_4">
      <!-- −20 -->
      <g transform="translate(259.505416 287.910437) scale(0.1 -0.1)">
       <defs>
        <path id="DejaVuSans-32" d="M 1228 531 
L 3431 531 
L 3431 0 
L 469 0 
L 469 531 
Q 828 903 1448 1529 
Q 2069 2156 2228 2338 
Q 2531 2678 2651 2914 
Q 2772 3150 2772 3378 
Q 2772 3750 2511 3984 
Q 2250 4219 1831 4219 
Q 1534 4219 1204 4116 
Q 875 4013 500 3803 
L 500 4441 
Q 881 4594 1212 4672 
Q 1544 4750 1819 4750 
Q 2544 4750 2975 4387 
Q 3406 4025 3406 3419 
Q 3406 3131 3298 2873 
Q 3191 2616 2906 2266 
Q 2828 2175 2409 1742 
Q 1991 1309 1228 531 
z
" transform="scale(0.015625)"/>
       </defs>
       <use xlink:href="#DejaVuSans-2212"/>
       <use xlink:href="#DejaVuSans-32" x="83.789062"/>
       <use xlink:href="#DejaVuSans-30" x="147.412109"/>
      </g>
     </g>
    </g>
    <g id="xtick_5">
     <g id="line2d_5">
      <g>
       <use xlink:href="#m5f48dccf6c" x="329.500118" y="273.312" style="stroke: #000000; stroke-width: 0.8"/>
      </g>
     </g>
     <g id="text_5">
      <!-- −10 -->
      <g transform="translate(318.947774 287.910437) scale(0.1 -0.1)">
       <defs>
        <path id="DejaVuSans-31" d="M 794 531 
L 1825 531 
L 1825 4091 
L 703 3866 
L 703 4441 
L 1819 4666 
L 2450 4666 
L 2450 531 
L 3481 531 
L 3481 0 
L 794 0 
L 794 531 
z
" transform="scale(0.015625)"/>
       </defs>
       <use xlink:href="#DejaVuSans-2212"/>
       <use xlink:href="#DejaVuSans-31" x="83.789062"/>
       <use xlink:href="#DejaVuSans-30" x="147.412109"/>
      </g>
     </g>
    </g>
    <g id="xtick_6">
     <g id="line2d_6">
      <g>
       <use xlink:href="#m5f48dccf6c" x="388.942476" y="273.312" style="stroke: #000000; stroke-width: 0.8"/>
      </g>
     </g>
     <g id="text_6">
      <!-- 0 -->
      <g transform="translate(385.761226 287.910437) scale(0.1 -0.1)">
       <use xlink:href="#DejaVuSans-30"/>
      </g>
     </g>
    </g>
    <g id="text_7">
     <!-- Latitude -->
     <g transform="translate(204.946719 301.588562) scale(0.1 -0.1)">
      <defs>
       <path id="DejaVuSans-4c" d="M 628 4666 
L 1259 4666 
L 1259 531 
L 3531 531 
L 3531 0 
L 628 0 
L 628 4666 
z
" transform="scale(0.015625)"/>
       <path id="DejaVuSans-61" d="M 2194 1759 
Q 1497 1759 1228 1600 
Q 959 1441 959 1056 
Q 959 750 1161 570 
Q 1363 391 1709 391 
Q 2188 391 2477 730 
Q 2766 1069 2766 1631 
L 2766 1759 
L 2194 1759 
z
M 3341 1997 
L 3341 0 
L 2766 0 
L 2766 531 
Q 2569 213 2275 61 
Q 1981 -91 1556 -91 
Q 1019 -91 701 211 
Q 384 513 384 1019 
Q 384 1609 779 1909 
Q 1175 2209 1959 2209 
L 2766 2209 
L 2766 2266 
Q 2766 2663 2505 2880 
Q 2244 3097 1772 3097 
Q 1472 3097 1187 3025 
Q 903 2953 641 2809 
L 641 3341 
Q 956 3463 1253 3523 
Q 1550 3584 1831 3584 
Q 2591 3584 2966 3190 
Q 3341 2797 3341 1997 
z
" transform="scale(0.015625)"/>
       <path id="DejaVuSans-74" d="M 1172 4494 
L 1172 3500 
L 2356 3500 
L 2356 3053 
L 1172 3053 
L 1172 1153 
Q 1172 725 1289 603 
Q 1406 481 1766 481 
L 2356 481 
L 2356 0 
L 1766 0 
Q 1100 0 847 248 
Q 594 497 594 1153 
L 594 3053 
L 172 3053 
L 172 3500 
L 594 3500 
L 594 4494 
L 1172 4494 
z
" transform="scale(0.015625)"/>
       <path id="DejaVuSans-69" d="M 603 3500 
L 1178 3500 
L 1178 0 
L 603 0 
L 603 3500 
z
M 603 4863 
L 1178 4863 
L 1178 4134 
L 603 4134 
L 603 4863 
z
" transform="scale(0.015625)"/>
       <path id="DejaVuSans-75" d="M 544 1381 
L 544 3500 
L 1119 3500 
L 1119 1403 
Q 1119 906 1312 657 
Q 1506 409 1894 409 
Q 2359 409 2629 706 
Q 2900 1003 2900 1516 
L 2900 3500 
L 3475 3500 
L 3475 0 
L 2900 0 
L 2900 538 
Q 2691 219 2414 64 
Q 2138 -91 1772 -91 
Q 1169 -91 856 284 
Q 544 659 544 1381 
z
M 1991 3584 
L 1991 3584 
z
" transform="scale(0.015625)"/>
       <path id="DejaVuSans-64" d="M 2906 2969 
L 2906 4863 
L 3481 4863 
L 3481 0 
L 2906 0 
L 2906 525 
Q 2725 213 2448 61 
Q 2172 -91 1784 -91 
Q 1150 -91 751 415 
Q 353 922 353 1747 
Q 353 2572 751 3078 
Q 1150 3584 1784 3584 
Q 2172 3584 2448 3432 
Q 2725 3281 2906 2969 
z
M 947 1747 
Q 947 1113 1208 752 
Q 1469 391 1925 391 
Q 2381 391 2643 752 
Q 2906 1113 2906 1747 
Q 2906 2381 2643 2742 
Q 2381 3103 1925 3103 
Q 1469 3103 1208 2742 
Q 947 2381 947 1747 
z
" transform="scale(0.015625)"/>
       <path id="DejaVuSans-65" d="M 3597 1894 
L 3597 1613 
L 953 1613 
Q 991 1019 1311 708 
Q 1631 397 2203 397 
Q 2534 397 2845 478 
Q 3156 559 3463 722 
L 3463 178 
Q 3153 47 2828 -22 
Q 2503 -91 2169 -91 
Q 1331 -91 842 396 
Q 353 884 353 1716 
Q 353 2575 817 3079 
Q 1281 3584 2069 3584 
Q 2775 3584 3186 3129 
Q 3597 2675 3597 1894 
z
M 3022 2063 
Q 3016 2534 2758 2815 
Q 2500 3097 2075 3097 
Q 1594 3097 1305 2825 
Q 1016 2553 972 2059 
L 3022 2063 
z
" transform="scale(0.015625)"/>
      </defs>
      <use xlink:href="#DejaVuSans-4c"/>
      <use xlink:href="#DejaVuSans-61" x="55.712891"/>
      <use xlink:href="#DejaVuSans-74" x="116.992188"/>
      <use xlink:href="#DejaVuSans-69" x="156.201172"/>
      <use xlink:href="#DejaVuSans-74" x="183.984375"/>
      <use xlink:href="#DejaVuSans-75" x="223.193359"/>
      <use xlink:href="#DejaVuSans-64" x="286.572266"/>
      <use xlink:href="#DejaVuSans-65" x="350.048828"/>
     </g>
    </g>
   </g>
   <g id="matplotlib.axis_2">
    <g id="ytick_1">
     <g id="line2d_7">
      <defs>
       <path id="m16cf944cb1" d="M 0 0 
L -3.5 0 
" style="stroke: #000000; stroke-width: 0.8"/>
      </defs>
      <g>
       <use xlink:href="#m16cf944cb1" x="46.965625" y="261.216" style="stroke: #000000; stroke-width: 0.8"/>
      </g>
     </g>
     <g id="text_8">
      <!-- 0 -->
      <g transform="translate(33.603125 265.015219) scale(0.1 -0.1)">
       <use xlink:href="#DejaVuSans-30"/>
      </g>
     </g>
    </g>
    <g id="ytick_2">
     <g id="line2d_8">
      <g>
       <use xlink:href="#m16cf944cb1" x="46.965625" y="212.832" style="stroke: #000000; stroke-width: 0.8"/>
      </g>
     </g>
     <g id="text_9">
      <!-- 20 -->
      <g transform="translate(27.240625 216.631219) scale(0.1 -0.1)">
       <use xlink:href="#DejaVuSans-32"/>
       <use xlink:href="#DejaVuSans-30" x="63.623047"/>
      </g>
     </g>
    </g>
    <g id="ytick_3">
     <g id="line2d_9">
      <g>
       <use xlink:href="#m16cf944cb1" x="46.965625" y="164.448" style="stroke: #000000; stroke-width: 0.8"/>
      </g>
     </g>
     <g id="text_10">
      <!-- 40 -->
      <g transform="translate(27.240625 168.247219) scale(0.1 -0.1)">
       <use xlink:href="#DejaVuSans-34"/>
       <use xlink:href="#DejaVuSans-30" x="63.623047"/>
      </g>
     </g>
    </g>
    <g id="ytick_4">
     <g id="line2d_10">
      <g>
       <use xlink:href="#m16cf944cb1" x="46.965625" y="116.064" style="stroke: #000000; stroke-width: 0.8"/>
      </g>
     </g>
     <g id="text_11">
      <!-- 60 -->
      <g transform="translate(27.240625 119.863219) scale(0.1 -0.1)">
       <defs>
        <path id="DejaVuSans-36" d="M 2113 2584 
Q 1688 2584 1439 2293 
Q 1191 2003 1191 1497 
Q 1191 994 1439 701 
Q 1688 409 2113 409 
Q 2538 409 2786 701 
Q 3034 994 3034 1497 
Q 3034 2003 2786 2293 
Q 2538 2584 2113 2584 
z
M 3366 4563 
L 3366 3988 
Q 3128 4100 2886 4159 
Q 2644 4219 2406 4219 
Q 1781 4219 1451 3797 
Q 1122 3375 1075 2522 
Q 1259 2794 1537 2939 
Q 1816 3084 2150 3084 
Q 2853 3084 3261 2657 
Q 3669 2231 3669 1497 
Q 3669 778 3244 343 
Q 2819 -91 2113 -91 
Q 1303 -91 875 529 
Q 447 1150 447 2328 
Q 447 3434 972 4092 
Q 1497 4750 2381 4750 
Q 2619 4750 2861 4703 
Q 3103 4656 3366 4563 
z
" transform="scale(0.015625)"/>
       </defs>
       <use xlink:href="#DejaVuSans-36"/>
       <use xlink:href="#DejaVuSans-30" x="63.623047"/>
      </g>
     </g>
    </g>
    <g id="ytick_5">
     <g id="line2d_11">
      <g>
       <use xlink:href="#m16cf944cb1" x="46.965625" y="67.68" style="stroke: #000000; stroke-width: 0.8"/>
      </g>
     </g>
     <g id="text_12">
      <!-- 80 -->
      <g transform="translate(27.240625 71.479219) scale(0.1 -0.1)">
       <defs>
        <path id="DejaVuSans-38" d="M 2034 2216 
Q 1584 2216 1326 1975 
Q 1069 1734 1069 1313 
Q 1069 891 1326 650 
Q 1584 409 2034 409 
Q 2484 409 2743 651 
Q 3003 894 3003 1313 
Q 3003 1734 2745 1975 
Q 2488 2216 2034 2216 
z
M 1403 2484 
Q 997 2584 770 2862 
Q 544 3141 544 3541 
Q 544 4100 942 4425 
Q 1341 4750 2034 4750 
Q 2731 4750 3128 4425 
Q 3525 4100 3525 3541 
Q 3525 3141 3298 2862 
Q 3072 2584 2669 2484 
Q 3125 2378 3379 2068 
Q 3634 1759 3634 1313 
Q 3634 634 3220 271 
Q 2806 -91 2034 -91 
Q 1263 -91 848 271 
Q 434 634 434 1313 
Q 434 1759 690 2068 
Q 947 2378 1403 2484 
z
M 1172 3481 
Q 1172 3119 1398 2916 
Q 1625 2713 2034 2713 
Q 2441 2713 2670 2916 
Q 2900 3119 2900 3481 
Q 2900 3844 2670 4047 
Q 2441 4250 2034 4250 
Q 1625 4250 1398 4047 
Q 1172 3844 1172 3481 
z
" transform="scale(0.015625)"/>
       </defs>
       <use xlink:href="#DejaVuSans-38"/>
       <use xlink:href="#DejaVuSans-30" x="63.623047"/>
      </g>
     </g>
    </g>
    <g id="ytick_6">
     <g id="line2d_12">
      <g>
       <use xlink:href="#m16cf944cb1" x="46.965625" y="19.296" style="stroke: #000000; stroke-width: 0.8"/>
      </g>
     </g>
     <g id="text_13">
      <!-- 100 -->
      <g transform="translate(20.878125 23.095219) scale(0.1 -0.1)">
       <use xlink:href="#DejaVuSans-31"/>
       <use xlink:href="#DejaVuSans-30" x="63.623047"/>
       <use xlink:href="#DejaVuSans-30" x="127.246094"/>
      </g>
     </g>
    </g>
    <g id="text_14">
     <!-- Cloudiness -->
     <g transform="translate(14.798438 167.382562) rotate(-90) scale(0.1 -0.1)">
      <defs>
       <path id="DejaVuSans-43" d="M 4122 4306 
L 4122 3641 
Q 3803 3938 3442 4084 
Q 3081 4231 2675 4231 
Q 1875 4231 1450 3742 
Q 1025 3253 1025 2328 
Q 1025 1406 1450 917 
Q 1875 428 2675 428 
Q 3081 428 3442 575 
Q 3803 722 4122 1019 
L 4122 359 
Q 3791 134 3420 21 
Q 3050 -91 2638 -91 
Q 1578 -91 968 557 
Q 359 1206 359 2328 
Q 359 3453 968 4101 
Q 1578 4750 2638 4750 
Q 3056 4750 3426 4639 
Q 3797 4528 4122 4306 
z
" transform="scale(0.015625)"/>
       <path id="DejaVuSans-6c" d="M 603 4863 
L 1178 4863 
L 1178 0 
L 603 0 
L 603 4863 
z
" transform="scale(0.015625)"/>
       <path id="DejaVuSans-6f" d="M 1959 3097 
Q 1497 3097 1228 2736 
Q 959 2375 959 1747 
Q 959 1119 1226 758 
Q 1494 397 1959 397 
Q 2419 397 2687 759 
Q 2956 1122 2956 1747 
Q 2956 2369 2687 2733 
Q 2419 3097 1959 3097 
z
M 1959 3584 
Q 2709 3584 3137 3096 
Q 3566 2609 3566 1747 
Q 3566 888 3137 398 
Q 2709 -91 1959 -91 
Q 1206 -91 779 398 
Q 353 888 353 1747 
Q 353 2609 779 3096 
Q 1206 3584 1959 3584 
z
" transform="scale(0.015625)"/>
       <path id="DejaVuSans-6e" d="M 3513 2113 
L 3513 0 
L 2938 0 
L 2938 2094 
Q 2938 2591 2744 2837 
Q 2550 3084 2163 3084 
Q 1697 3084 1428 2787 
Q 1159 2491 1159 1978 
L 1159 0 
L 581 0 
L 581 3500 
L 1159 3500 
L 1159 2956 
Q 1366 3272 1645 3428 
Q 1925 3584 2291 3584 
Q 2894 3584 3203 3211 
Q 3513 2838 3513 2113 
z
" transform="scale(0.015625)"/>
       <path id="DejaVuSans-73" d="M 2834 3397 
L 2834 2853 
Q 2591 2978 2328 3040 
Q 2066 3103 1784 3103 
Q 1356 3103 1142 2972 
Q 928 2841 928 2578 
Q 928 2378 1081 2264 
Q 1234 2150 1697 2047 
L 1894 2003 
Q 2506 1872 2764 1633 
Q 3022 1394 3022 966 
Q 3022 478 2636 193 
Q 2250 -91 1575 -91 
Q 1294 -91 989 -36 
Q 684 19 347 128 
L 347 722 
Q 666 556 975 473 
Q 1284 391 1588 391 
Q 1994 391 2212 530 
Q 2431 669 2431 922 
Q 2431 1156 2273 1281 
Q 2116 1406 1581 1522 
L 1381 1569 
Q 847 1681 609 1914 
Q 372 2147 372 2553 
Q 372 3047 722 3315 
Q 1072 3584 1716 3584 
Q 2034 3584 2315 3537 
Q 2597 3491 2834 3397 
z
" transform="scale(0.015625)"/>
      </defs>
      <use xlink:href="#DejaVuSans-43"/>
      <use xlink:href="#DejaVuSans-6c" x="69.824219"/>
      <use xlink:href="#DejaVuSans-6f" x="97.607422"/>
      <use xlink:href="#DejaVuSans-75" x="158.789062"/>
      <use xlink:href="#DejaVuSans-64" x="222.167969"/>
      <use xlink:href="#DejaVuSans-69" x="285.644531"/>
      <use xlink:href="#DejaVuSans-6e" x="313.427734"/>
      <use xlink:href="#DejaVuSans-65" x="376.806641"/>
      <use xlink:href="#DejaVuSans-73" x="438.330078"/>
      <use xlink:href="#DejaVuSans-73" x="490.429688"/>
     </g>
    </g>
   </g>
   <g id="line2d_13">
    <path d="M 186.818842 117.088708 
L 387.852898 68.54858 
L 63.198352 146.937154 
L 284.720406 93.450154 
" clip-path="url(#p324837ebdd)" style="fill: none; stroke: #ff0000; stroke-width: 1.5; stroke-linecap: square"/>
   </g>
   <g id="patch_3">
    <path d="M 46.965625 273.312 
L 46.965625 7.2 
" style="fill: none; stroke: #000000; stroke-width: 0.8; stroke-linejoin: miter; stroke-linecap: square"/>
   </g>
   <g id="patch_4">
    <path d="M 404.085625 273.312 
L 404.085625 7.2 
" style="fill: none; stroke: #000000; stroke-width: 0.8; stroke-linejoin: miter; stroke-linecap: square"/>
   </g>
   <g id="patch_5">
    <path d="M 46.965625 273.312 
L 404.085625 273.312 
" style="fill: none; stroke: #000000; stroke-width: 0.8; stroke-linejoin: miter; stroke-linecap: square"/>
   </g>
   <g id="patch_6">
    <path d="M 46.965625 7.2 
L 404.085625 7.2 
" style="fill: none; stroke: #000000; stroke-width: 0.8; stroke-linejoin: miter; stroke-linecap: square"/>
   </g>
   <g id="text_15">
    <!-- y = 0.59x + 79.75 -->
    <g style="fill: #ff0000" transform="translate(240.33658 200.736) scale(0.15 -0.15)">
     <defs>
      <path id="DejaVuSans-79" d="M 2059 -325 
Q 1816 -950 1584 -1140 
Q 1353 -1331 966 -1331 
L 506 -1331 
L 506 -850 
L 844 -850 
Q 1081 -850 1212 -737 
Q 1344 -625 1503 -206 
L 1606 56 
L 191 3500 
L 800 3500 
L 1894 763 
L 2988 3500 
L 3597 3500 
L 2059 -325 
z
" transform="scale(0.015625)"/>
      <path id="DejaVuSans-20" transform="scale(0.015625)"/>
      <path id="DejaVuSans-3d" d="M 678 2906 
L 4684 2906 
L 4684 2381 
L 678 2381 
L 678 2906 
z
M 678 1631 
L 4684 1631 
L 4684 1100 
L 678 1100 
L 678 1631 
z
" transform="scale(0.015625)"/>
      <path id="DejaVuSans-2e" d="M 684 794 
L 1344 794 
L 1344 0 
L 684 0 
L 684 794 
z
" transform="scale(0.015625)"/>
      <path id="DejaVuSans-39" d="M 703 97 
L 703 672 
Q 941 559 1184 500 
Q 1428 441 1663 441 
Q 2288 441 2617 861 
Q 2947 1281 2994 2138 
Q 2813 1869 2534 1725 
Q 2256 1581 1919 1581 
Q 1219 1581 811 2004 
Q 403 2428 403 3163 
Q 403 3881 828 4315 
Q 1253 4750 1959 4750 
Q 2769 4750 3195 4129 
Q 3622 3509 3622 2328 
Q 3622 1225 3098 567 
Q 2575 -91 1691 -91 
Q 1453 -91 1209 -44 
Q 966 3 703 97 
z
M 1959 2075 
Q 2384 2075 2632 2365 
Q 2881 2656 2881 3163 
Q 2881 3666 2632 3958 
Q 2384 4250 1959 4250 
Q 1534 4250 1286 3958 
Q 1038 3666 1038 3163 
Q 1038 2656 1286 2365 
Q 1534 2075 1959 2075 
z
" transform="scale(0.015625)"/>
      <path id="DejaVuSans-78" d="M 3513 3500 
L 2247 1797 
L 3578 0 
L 2900 0 
L 1881 1375 
L 863 0 
L 184 0 
L 1544 1831 
L 300 3500 
L 978 3500 
L 1906 2253 
L 2834 3500 
L 3513 3500 
z
" transform="scale(0.015625)"/>
      <path id="DejaVuSans-2b" d="M 2944 4013 
L 2944 2272 
L 4684 2272 
L 4684 1741 
L 2944 1741 
L 2944 0 
L 2419 0 
L 2419 1741 
L 678 1741 
L 678 2272 
L 2419 2272 
L 2419 4013 
L 2944 4013 
z
" transform="scale(0.015625)"/>
      <path id="DejaVuSans-37" d="M 525 4666 
L 3525 4666 
L 3525 4397 
L 1831 0 
L 1172 0 
L 2766 4134 
L 525 4134 
L 525 4666 
z
" transform="scale(0.015625)"/>
     </defs>
     <use xlink:href="#DejaVuSans-79"/>
     <use xlink:href="#DejaVuSans-20" x="59.179688"/>
     <use xlink:href="#DejaVuSans-3d" x="90.966797"/>
     <use xlink:href="#DejaVuSans-20" x="174.755859"/>
     <use xlink:href="#DejaVuSans-30" x="206.542969"/>
     <use xlink:href="#DejaVuSans-2e" x="270.166016"/>
     <use xlink:href="#DejaVuSans-35" x="301.953125"/>
     <use xlink:href="#DejaVuSans-39" x="365.576172"/>
     <use xlink:href="#DejaVuSans-78" x="429.199219"/>
     <use xlink:href="#DejaVuSans-20" x="488.378906"/>
     <use xlink:href="#DejaVuSans-2b" x="520.166016"/>
     <use xlink:href="#DejaVuSans-20" x="603.955078"/>
     <use xlink:href="#DejaVuSans-37" x="635.742188"/>
     <use xlink:href="#DejaVuSans-39" x="699.365234"/>
     <use xlink:href="#DejaVuSans-2e" x="762.988281"/>
     <use xlink:href="#DejaVuSans-37" x="794.775391"/>
     <use xlink:href="#DejaVuSans-35" x="858.398438"/>
    </g>
   </g>
  </g>
 </g>
 <defs>
  <clipPath id="p324837ebdd">
   <rect x="46.965625" y="7.2" width="357.12" height="266.112"/>
  </clipPath>
 </defs>
</svg>
