<?xml version="1.0" encoding="utf-8" standalone="no"?>
<!DOCTYPE svg PUBLIC "-//W3C//DTD SVG 1.1//EN"
  "http://www.w3.org/Graphics/SVG/1.1/DTD/svg11.dtd">
<svg xmlns:xlink="http://www.w3.org/1999/xlink" width="404.923125pt" height="310.86825pt" viewBox="0 0 404.923125 310.86825" xmlns="http://www.w3.org/2000/svg" version="1.1">
 <metadata>
  <rdf:RDF xmlns:dc="http://purl.org/dc/elements/1.1/" xmlns:cc="http://creativecommons.org/ns#" xmlns:rdf="http://www.w3.org/1999/02/22-rdf-syntax-ns#">
   <cc:Work>
    <dc:type rdf:resource="http://purl.org/dc/dcmitype/StillImage"/>
    <dc:date>2024-01-07T19:12:17.355021</dc:date>
    <dc:format>image/svg+xml</dc:format>
    <dc:creator>
     <cc:Agent>
      <dc:title>Matplotlib v3.7.0, https://matplotlib.org/</dc:title>
     </cc:Agent>
    </dc:creator>
   </cc:Work>
  </rdf:RDF>
 </metadata>
 <defs>
  <style type="text/css">*{stroke-linejoin: round; stroke-linecap: butt}</style>
 </defs>
 <g id="figure_1">
  <g id="patch_1">
   <path d="M 0 310.86825 
L 404.923125 310.86825 
L 404.923125 0 
L 0 0 
z
" style="fill: #ffffff"/>
  </g>
  <g id="axes_1">
   <g id="patch_2">
    <path d="M 40.603125 273.312 
L 397.723125 273.312 
L 397.723125 7.2 
L 40.603125 7.2 
z
" style="fill: #ffffff"/>
   </g>
   <g id="PathCollection_1">
    <defs>
     <path id="mee740f5032" d="M 0 3 
C 0.795609 3 1.55874 2.683901 2.12132 2.12132 
C 2.683901 1.55874 3 0.795609 3 0 
C 3 -0.795609 2.683901 -1.55874 2.12132 -2.12132 
C 1.55874 -2.683901 0.795609 -3 0 -3 
C -0.795609 -3 -1.55874 -2.683901 -2.12132 -2.12132 
C -2.683901 -1.55874 -3 -0.795609 -3 0 
C -3 0.795609 -2.683901 1.55874 -2.12132 2.12132 
C -1.55874 2.683901 -0.795609 3 0 3 
z
" style="stroke: #1f77b4"/>
    </defs>
    <g clip-path="url(#p89bbafb8b9)">
     <use xlink:href="#mee740f5032" x="180.456342" y="200.600496" style="fill: #1f77b4; stroke: #1f77b4"/>
     <use xlink:href="#mee740f5032" x="378.185403" y="215.957628" style="fill: #1f77b4; stroke: #1f77b4"/>
     <use xlink:href="#mee740f5032" x="255.620015" y="193.283274" style="fill: #1f77b4; stroke: #1f77b4"/>
     <use xlink:href="#mee740f5032" x="107.470636" y="203.03957" style="fill: #1f77b4; stroke: #1f77b4"/>
     <use xlink:href="#mee740f5032" x="156.685343" y="177.926142" style="fill: #1f77b4; stroke: #1f77b4"/>
     <use xlink:href="#mee740f5032" x="128.270112" y="223.184514" style="fill: #1f77b4; stroke: #1f77b4"/>
     <use xlink:href="#mee740f5032" x="182.55644" y="193.102602" style="fill: #1f77b4; stroke: #1f77b4"/>
     <use xlink:href="#mee740f5032" x="260.623873" y="261.216" style="fill: #1f77b4; stroke: #1f77b4"/>
     <use xlink:href="#mee740f5032" x="177.987106" y="199.606799" style="fill: #1f77b4; stroke: #1f77b4"/>
     <use xlink:href="#mee740f5032" x="263.548437" y="235.741228" style="fill: #1f77b4; stroke: #1f77b4"/>
     <use xlink:href="#mee740f5032" x="266.370166" y="261.216" style="fill: #1f77b4; stroke: #1f77b4"/>
     <use xlink:href="#mee740f5032" x="66.643841" y="84.428308" style="fill: #1f77b4; stroke: #1f77b4"/>
     <use xlink:href="#mee740f5032" x="251.117256" y="195.90302" style="fill: #1f77b4; stroke: #1f77b4"/>
     <use xlink:href="#mee740f5032" x="56.835852" y="115.684588" style="fill: #1f77b4; stroke: #1f77b4"/>
     <use xlink:href="#mee740f5032" x="232.543897" y="132.66777" style="fill: #1f77b4; stroke: #1f77b4"/>
     <use xlink:href="#mee740f5032" x="177.008685" y="211.892505" style="fill: #1f77b4; stroke: #1f77b4"/>
     <use xlink:href="#mee740f5032" x="246.064061" y="148.024902" style="fill: #1f77b4; stroke: #1f77b4"/>
     <use xlink:href="#mee740f5032" x="107.999673" y="238.360974" style="fill: #1f77b4; stroke: #1f77b4"/>
     <use xlink:href="#mee740f5032" x="324.326465" y="145.405156" style="fill: #1f77b4; stroke: #1f77b4"/>
     <use xlink:href="#mee740f5032" x="245.14746" y="154.529099" style="fill: #1f77b4; stroke: #1f77b4"/>
     <use xlink:href="#mee740f5032" x="180.91702" y="136.552221" style="fill: #1f77b4; stroke: #1f77b4"/>
     <use xlink:href="#mee740f5032" x="257.031177" y="230.321063" style="fill: #1f77b4; stroke: #1f77b4"/>
     <use xlink:href="#mee740f5032" x="256.515811" y="105.205604" style="fill: #1f77b4; stroke: #1f77b4"/>
     <use xlink:href="#mee740f5032" x="157.689918" y="151.096329" style="fill: #1f77b4; stroke: #1f77b4"/>
     <use xlink:href="#mee740f5032" x="367.503016" y="247.846261" style="fill: #1f77b4; stroke: #1f77b4"/>
     <use xlink:href="#mee740f5032" x="256.562176" y="176.932445" style="fill: #1f77b4; stroke: #1f77b4"/>
     <use xlink:href="#mee740f5032" x="256.859388" y="186.417733" style="fill: #1f77b4; stroke: #1f77b4"/>
     <use xlink:href="#mee740f5032" x="139.974907" y="136.552221" style="fill: #1f77b4; stroke: #1f77b4"/>
     <use xlink:href="#mee740f5032" x="361.874419" y="245.497524" style="fill: #1f77b4; stroke: #1f77b4"/>
     <use xlink:href="#mee740f5032" x="379.013435" y="160.581616" style="fill: #1f77b4; stroke: #1f77b4"/>
     <use xlink:href="#mee740f5032" x="311.488699" y="166.634133" style="fill: #1f77b4; stroke: #1f77b4"/>
     <use xlink:href="#mee740f5032" x="338.172968" y="191.295881" style="fill: #1f77b4; stroke: #1f77b4"/>
     <use xlink:href="#mee740f5032" x="247.843766" y="123.00181" style="fill: #1f77b4; stroke: #1f77b4"/>
     <use xlink:href="#mee740f5032" x="261.657575" y="261.216" style="fill: #1f77b4; stroke: #1f77b4"/>
     <use xlink:href="#mee740f5032" x="261.269417" y="261.216" style="fill: #1f77b4; stroke: #1f77b4"/>
     <use xlink:href="#mee740f5032" x="329.518161" y="253.718106" style="fill: #1f77b4; stroke: #1f77b4"/>
     <use xlink:href="#mee740f5032" x="105.578586" y="231.134088" style="fill: #1f77b4; stroke: #1f77b4"/>
     <use xlink:href="#mee740f5032" x="186.329247" y="226.25594" style="fill: #1f77b4; stroke: #1f77b4"/>
     <use xlink:href="#mee740f5032" x="288.858993" y="188.495462" style="fill: #1f77b4; stroke: #1f77b4"/>
     <use xlink:href="#mee740f5032" x="112.6124" y="216.770653" style="fill: #1f77b4; stroke: #1f77b4"/>
     <use xlink:href="#mee740f5032" x="177.312435" y="230.140391" style="fill: #1f77b4; stroke: #1f77b4"/>
     <use xlink:href="#mee740f5032" x="173.540818" y="203.220242" style="fill: #1f77b4; stroke: #1f77b4"/>
     <use xlink:href="#mee740f5032" x="256.859388" y="180.365216" style="fill: #1f77b4; stroke: #1f77b4"/>
     <use xlink:href="#mee740f5032" x="127.69471" y="125.982901" style="fill: #1f77b4; stroke: #1f77b4"/>
     <use xlink:href="#mee740f5032" x="172.550508" y="113.064842" style="fill: #1f77b4; stroke: #1f77b4"/>
     <use xlink:href="#mee740f5032" x="158.97744" y="188.043782" style="fill: #1f77b4; stroke: #1f77b4"/>
     <use xlink:href="#mee740f5032" x="359.989502" y="235.379883" style="fill: #1f77b4; stroke: #1f77b4"/>
     <use xlink:href="#mee740f5032" x="259.310197" y="115.142572" style="fill: #1f77b4; stroke: #1f77b4"/>
     <use xlink:href="#mee740f5032" x="262.460047" y="196.174028" style="fill: #1f77b4; stroke: #1f77b4"/>
     <use xlink:href="#mee740f5032" x="211.583927" y="157.329518" style="fill: #1f77b4; stroke: #1f77b4"/>
     <use xlink:href="#mee740f5032" x="224.177385" y="19.296" style="fill: #1f77b4; stroke: #1f77b4"/>
     <use xlink:href="#mee740f5032" x="232.199131" y="161.755985" style="fill: #1f77b4; stroke: #1f77b4"/>
     <use xlink:href="#mee740f5032" x="348.895775" y="161.213969" style="fill: #1f77b4; stroke: #1f77b4"/>
     <use xlink:href="#mee740f5032" x="261.515508" y="216.318972" style="fill: #1f77b4; stroke: #1f77b4"/>
     <use xlink:href="#mee740f5032" x="241.701587" y="170.518584" style="fill: #1f77b4; stroke: #1f77b4"/>
     <use xlink:href="#mee740f5032" x="125.193376" y="201.232848" style="fill: #1f77b4; stroke: #1f77b4"/>
     <use xlink:href="#mee740f5032" x="329.689355" y="192.108905" style="fill: #1f77b4; stroke: #1f77b4"/>
     <use xlink:href="#mee740f5032" x="351.676488" y="184.430339" style="fill: #1f77b4; stroke: #1f77b4"/>
     <use xlink:href="#mee740f5032" x="182.909528" y="243.239122" style="fill: #1f77b4; stroke: #1f77b4"/>
     <use xlink:href="#mee740f5032" x="180.963385" y="136.552221" style="fill: #1f77b4; stroke: #1f77b4"/>
     <use xlink:href="#mee740f5032" x="374.282417" y="244.232819" style="fill: #1f77b4; stroke: #1f77b4"/>
     <use xlink:href="#mee740f5032" x="324.524408" y="234.566859" style="fill: #1f77b4; stroke: #1f77b4"/>
     <use xlink:href="#mee740f5032" x="136.416093" y="213.15721" style="fill: #1f77b4; stroke: #1f77b4"/>
     <use xlink:href="#mee740f5032" x="203.1764" y="176.751773" style="fill: #1f77b4; stroke: #1f77b4"/>
     <use xlink:href="#mee740f5032" x="370.557165" y="219.751743" style="fill: #1f77b4; stroke: #1f77b4"/>
     <use xlink:href="#mee740f5032" x="377.428107" y="258.596254" style="fill: #1f77b4; stroke: #1f77b4"/>
     <use xlink:href="#mee740f5032" x="330.01391" y="244.413491" style="fill: #1f77b4; stroke: #1f77b4"/>
     <use xlink:href="#mee740f5032" x="155.113687" y="112.703498" style="fill: #1f77b4; stroke: #1f77b4"/>
     <use xlink:href="#mee740f5032" x="262.308469" y="193.554282" style="fill: #1f77b4; stroke: #1f77b4"/>
     <use xlink:href="#mee740f5032" x="326.447963" y="209.272759" style="fill: #1f77b4; stroke: #1f77b4"/>
     <use xlink:href="#mee740f5032" x="212.872043" y="71.871594" style="fill: #1f77b4; stroke: #1f77b4"/>
     <use xlink:href="#mee740f5032" x="349.886679" y="207.827382" style="fill: #1f77b4; stroke: #1f77b4"/>
     <use xlink:href="#mee740f5032" x="286.090168" y="226.25594" style="fill: #1f77b4; stroke: #1f77b4"/>
     <use xlink:href="#mee740f5032" x="334.164175" y="205.478644" style="fill: #1f77b4; stroke: #1f77b4"/>
     <use xlink:href="#mee740f5032" x="195.733028" y="126.253909" style="fill: #1f77b4; stroke: #1f77b4"/>
     <use xlink:href="#mee740f5032" x="241.602318" y="249.291639" style="fill: #1f77b4; stroke: #1f77b4"/>
     <use xlink:href="#mee740f5032" x="323.534098" y="227.068965" style="fill: #1f77b4; stroke: #1f77b4"/>
     <use xlink:href="#mee740f5032" x="234.766447" y="134.7455" style="fill: #1f77b4; stroke: #1f77b4"/>
     <use xlink:href="#mee740f5032" x="372.198963" y="227.068965" style="fill: #1f77b4; stroke: #1f77b4"/>
     <use xlink:href="#mee740f5032" x="181.268324" y="162.388338" style="fill: #1f77b4; stroke: #1f77b4"/>
     <use xlink:href="#mee740f5032" x="284.599354" y="179.010175" style="fill: #1f77b4; stroke: #1f77b4"/>
     <use xlink:href="#mee740f5032" x="381.490398" y="212.344185" style="fill: #1f77b4; stroke: #1f77b4"/>
     <use xlink:href="#mee740f5032" x="299.567534" y="222.82317" style="fill: #1f77b4; stroke: #1f77b4"/>
     <use xlink:href="#mee740f5032" x="170.865912" y="168.260182" style="fill: #1f77b4; stroke: #1f77b4"/>
     <use xlink:href="#mee740f5032" x="75.723067" y="32.485066" style="fill: #1f77b4; stroke: #1f77b4"/>
     <use xlink:href="#mee740f5032" x="253.944929" y="196.354701" style="fill: #1f77b4; stroke: #1f77b4"/>
     <use xlink:href="#mee740f5032" x="278.74547" y="237.005933" style="fill: #1f77b4; stroke: #1f77b4"/>
     <use xlink:href="#mee740f5032" x="343.082312" y="258.776926" style="fill: #1f77b4; stroke: #1f77b4"/>
     <use xlink:href="#mee740f5032" x="192.661641" y="137.72659" style="fill: #1f77b4; stroke: #1f77b4"/>
     <use xlink:href="#mee740f5032" x="182.276467" y="176.751773" style="fill: #1f77b4; stroke: #1f77b4"/>
     <use xlink:href="#mee740f5032" x="109.937494" y="63.831683" style="fill: #1f77b4; stroke: #1f77b4"/>
     <use xlink:href="#mee740f5032" x="186.350646" y="51.455642" style="fill: #1f77b4; stroke: #1f77b4"/>
     <use xlink:href="#mee740f5032" x="367.277135" y="223.816866" style="fill: #1f77b4; stroke: #1f77b4"/>
     <use xlink:href="#mee740f5032" x="111.670239" y="230.140391" style="fill: #1f77b4; stroke: #1f77b4"/>
     <use xlink:href="#mee740f5032" x="341.657479" y="233.121482" style="fill: #1f77b4; stroke: #1f77b4"/>
     <use xlink:href="#mee740f5032" x="267.979865" y="219.751743" style="fill: #1f77b4; stroke: #1f77b4"/>
     <use xlink:href="#mee740f5032" x="204.530497" y="188.495462" style="fill: #1f77b4; stroke: #1f77b4"/>
     <use xlink:href="#mee740f5032" x="377.152294" y="247.665589" style="fill: #1f77b4; stroke: #1f77b4"/>
     <use xlink:href="#mee740f5032" x="108.352761" y="235.379883" style="fill: #1f77b4; stroke: #1f77b4"/>
     <use xlink:href="#mee740f5032" x="262.382772" y="220.203423" style="fill: #1f77b4; stroke: #1f77b4"/>
     <use xlink:href="#mee740f5032" x="314.906634" y="230.140391" style="fill: #1f77b4; stroke: #1f77b4"/>
     <use xlink:href="#mee740f5032" x="330.270701" y="250.466007" style="fill: #1f77b4; stroke: #1f77b4"/>
     <use xlink:href="#mee740f5032" x="177.005713" y="212.344185" style="fill: #1f77b4; stroke: #1f77b4"/>
     <use xlink:href="#mee740f5032" x="153.445734" y="214.512251" style="fill: #1f77b4; stroke: #1f77b4"/>
     <use xlink:href="#mee740f5032" x="133.696605" y="192.741258" style="fill: #1f77b4; stroke: #1f77b4"/>
     <use xlink:href="#mee740f5032" x="263.657216" y="225.081571" style="fill: #1f77b4; stroke: #1f77b4"/>
     <use xlink:href="#mee740f5032" x="259.336351" y="209.272759" style="fill: #1f77b4; stroke: #1f77b4"/>
     <use xlink:href="#mee740f5032" x="357.119031" y="235.741228" style="fill: #1f77b4; stroke: #1f77b4"/>
     <use xlink:href="#mee740f5032" x="353.05674" y="244.232819" style="fill: #1f77b4; stroke: #1f77b4"/>
     <use xlink:href="#mee740f5032" x="350.729572" y="248.297942" style="fill: #1f77b4; stroke: #1f77b4"/>
     <use xlink:href="#mee740f5032" x="109.892913" y="211.260152" style="fill: #1f77b4; stroke: #1f77b4"/>
     <use xlink:href="#mee740f5032" x="288.750213" y="219.209727" style="fill: #1f77b4; stroke: #1f77b4"/>
     <use xlink:href="#mee740f5032" x="349.588278" y="238.812654" style="fill: #1f77b4; stroke: #1f77b4"/>
     <use xlink:href="#mee740f5032" x="235.215831" y="238.541646" style="fill: #1f77b4; stroke: #1f77b4"/>
     <use xlink:href="#mee740f5032" x="371.074313" y="223.184514" style="fill: #1f77b4; stroke: #1f77b4"/>
     <use xlink:href="#mee740f5032" x="290.246378" y="219.751743" style="fill: #1f77b4; stroke: #1f77b4"/>
     <use xlink:href="#mee740f5032" x="164.327252" y="105.205604" style="fill: #1f77b4; stroke: #1f77b4"/>
     <use xlink:href="#mee740f5032" x="378.49272" y="258.957598" style="fill: #1f77b4; stroke: #1f77b4"/>
     <use xlink:href="#mee740f5032" x="177.603109" y="235.560556" style="fill: #1f77b4; stroke: #1f77b4"/>
     <use xlink:href="#mee740f5032" x="339.433146" y="252.092057" style="fill: #1f77b4; stroke: #1f77b4"/>
     <use xlink:href="#mee740f5032" x="176.11705" y="126.253909" style="fill: #1f77b4; stroke: #1f77b4"/>
     <use xlink:href="#mee740f5032" x="255.571272" y="189.850503" style="fill: #1f77b4; stroke: #1f77b4"/>
     <use xlink:href="#mee740f5032" x="329.009334" y="193.915627" style="fill: #1f77b4; stroke: #1f77b4"/>
     <use xlink:href="#mee740f5032" x="194.808105" y="209.272759" style="fill: #1f77b4; stroke: #1f77b4"/>
     <use xlink:href="#mee740f5032" x="283.311238" y="187.682438" style="fill: #1f77b4; stroke: #1f77b4"/>
     <use xlink:href="#mee740f5032" x="348.133129" y="177.926142" style="fill: #1f77b4; stroke: #1f77b4"/>
     <use xlink:href="#mee740f5032" x="380.450751" y="112.522826" style="fill: #1f77b4; stroke: #1f77b4"/>
     <use xlink:href="#mee740f5032" x="373.220182" y="199.606799" style="fill: #1f77b4; stroke: #1f77b4"/>
     <use xlink:href="#mee740f5032" x="356.920493" y="256.15718" style="fill: #1f77b4; stroke: #1f77b4"/>
     <use xlink:href="#mee740f5032" x="315.25675" y="253.718106" style="fill: #1f77b4; stroke: #1f77b4"/>
     <use xlink:href="#mee740f5032" x="359.129966" y="241.251728" style="fill: #1f77b4; stroke: #1f77b4"/>
     <use xlink:href="#mee740f5032" x="318.679441" y="193.102602" style="fill: #1f77b4; stroke: #1f77b4"/>
     <use xlink:href="#mee740f5032" x="331.378706" y="253.356762" style="fill: #1f77b4; stroke: #1f77b4"/>
     <use xlink:href="#mee740f5032" x="355.794655" y="236.192908" style="fill: #1f77b4; stroke: #1f77b4"/>
     <use xlink:href="#mee740f5032" x="258.123727" y="209.724439" style="fill: #1f77b4; stroke: #1f77b4"/>
     <use xlink:href="#mee740f5032" x="301.143945" y="74.129996" style="fill: #1f77b4; stroke: #1f77b4"/>
     <use xlink:href="#mee740f5032" x="232.983176" y="230.140391" style="fill: #1f77b4; stroke: #1f77b4"/>
     <use xlink:href="#mee740f5032" x="378.255545" y="240.800048" style="fill: #1f77b4; stroke: #1f77b4"/>
     <use xlink:href="#mee740f5032" x="311.563002" y="217.945022" style="fill: #1f77b4; stroke: #1f77b4"/>
     <use xlink:href="#mee740f5032" x="136.191401" y="53.262363" style="fill: #1f77b4; stroke: #1f77b4"/>
     <use xlink:href="#mee740f5032" x="339.187055" y="247.846261" style="fill: #1f77b4; stroke: #1f77b4"/>
     <use xlink:href="#mee740f5032" x="157.689918" y="230.321063" style="fill: #1f77b4; stroke: #1f77b4"/>
     <use xlink:href="#mee740f5032" x="195.972581" y="219.751743" style="fill: #1f77b4; stroke: #1f77b4"/>
     <use xlink:href="#mee740f5032" x="223.36243" y="201.232848" style="fill: #1f77b4; stroke: #1f77b4"/>
     <use xlink:href="#mee740f5032" x="284.500085" y="188.495462" style="fill: #1f77b4; stroke: #1f77b4"/>
     <use xlink:href="#mee740f5032" x="376.923441" y="249.291639" style="fill: #1f77b4; stroke: #1f77b4"/>
     <use xlink:href="#mee740f5032" x="362.179359" y="225.262243" style="fill: #1f77b4; stroke: #1f77b4"/>
     <use xlink:href="#mee740f5032" x="333.493665" y="230.140391" style="fill: #1f77b4; stroke: #1f77b4"/>
     <use xlink:href="#mee740f5032" x="265.614059" y="216.951325" style="fill: #1f77b4; stroke: #1f77b4"/>
     <use xlink:href="#mee740f5032" x="355.37202" y="157.329518" style="fill: #1f77b4; stroke: #1f77b4"/>
     <use xlink:href="#mee740f5032" x="250.164395" y="121.195089" style="fill: #1f77b4; stroke: #1f77b4"/>
     <use xlink:href="#mee740f5032" x="330.463294" y="207.646709" style="fill: #1f77b4; stroke: #1f77b4"/>
     <use xlink:href="#mee740f5032" x="192.156381" y="167.62783" style="fill: #1f77b4; stroke: #1f77b4"/>
     <use xlink:href="#mee740f5032" x="255.670541" y="210.537464" style="fill: #1f77b4; stroke: #1f77b4"/>
     <use xlink:href="#mee740f5032" x="249.319719" y="194.728651" style="fill: #1f77b4; stroke: #1f77b4"/>
     <use xlink:href="#mee740f5032" x="367.743758" y="249.923991" style="fill: #1f77b4; stroke: #1f77b4"/>
     <use xlink:href="#mee740f5032" x="256.859388" y="239.987023" style="fill: #1f77b4; stroke: #1f77b4"/>
     <use xlink:href="#mee740f5032" x="366.629808" y="239.173999" style="fill: #1f77b4; stroke: #1f77b4"/>
     <use xlink:href="#mee740f5032" x="330.051953" y="230.140391" style="fill: #1f77b4; stroke: #1f77b4"/>
     <use xlink:href="#mee740f5032" x="333.896685" y="239.987023" style="fill: #1f77b4; stroke: #1f77b4"/>
     <use xlink:href="#mee740f5032" x="289.156205" y="188.856807" style="fill: #1f77b4; stroke: #1f77b4"/>
     <use xlink:href="#mee740f5032" x="334.413833" y="220.564768" style="fill: #1f77b4; stroke: #1f77b4"/>
     <use xlink:href="#mee740f5032" x="207.422962" y="146.037509" style="fill: #1f77b4; stroke: #1f77b4"/>
     <use xlink:href="#mee740f5032" x="312.234106" y="239.354671" style="fill: #1f77b4; stroke: #1f77b4"/>
     <use xlink:href="#mee740f5032" x="264.884107" y="182.623618" style="fill: #1f77b4; stroke: #1f77b4"/>
     <use xlink:href="#mee740f5032" x="358.391692" y="251.911385" style="fill: #1f77b4; stroke: #1f77b4"/>
     <use xlink:href="#mee740f5032" x="329.181122" y="214.963931" style="fill: #1f77b4; stroke: #1f77b4"/>
     <use xlink:href="#mee740f5032" x="357.708699" y="248.930294" style="fill: #1f77b4; stroke: #1f77b4"/>
     <use xlink:href="#mee740f5032" x="360.784247" y="249.923991" style="fill: #1f77b4; stroke: #1f77b4"/>
     <use xlink:href="#mee740f5032" x="292.250774" y="204.846291" style="fill: #1f77b4; stroke: #1f77b4"/>
     <use xlink:href="#mee740f5032" x="309.862356" y="209.272759" style="fill: #1f77b4; stroke: #1f77b4"/>
     <use xlink:href="#mee740f5032" x="261.735445" y="250.917688" style="fill: #1f77b4; stroke: #1f77b4"/>
     <use xlink:href="#mee740f5032" x="376.937707" y="227.249637" style="fill: #1f77b4; stroke: #1f77b4"/>
     <use xlink:href="#mee740f5032" x="323.877081" y="240.167695" style="fill: #1f77b4; stroke: #1f77b4"/>
     <use xlink:href="#mee740f5032" x="220.414089" y="212.886202" style="fill: #1f77b4; stroke: #1f77b4"/>
     <use xlink:href="#mee740f5032" x="379.715449" y="234.295851" style="fill: #1f77b4; stroke: #1f77b4"/>
     <use xlink:href="#mee740f5032" x="340.871057" y="228.243334" style="fill: #1f77b4; stroke: #1f77b4"/>
     <use xlink:href="#mee740f5032" x="278.357906" y="239.173999" style="fill: #1f77b4; stroke: #1f77b4"/>
    </g>
   </g>
   <g id="matplotlib.axis_1">
    <g id="xtick_1">
     <g id="line2d_1">
      <defs>
       <path id="me3ecdb63fa" d="M 0 0 
L 0 3.5 
" style="stroke: #000000; stroke-width: 0.8"/>
      </defs>
      <g>
       <use xlink:href="#me3ecdb63fa" x="85.368184" y="273.312" style="stroke: #000000; stroke-width: 0.8"/>
      </g>
     </g>
     <g id="text_1">
      <!-- −50 -->
      <g transform="translate(74.815841 287.910437) scale(0.1 -0.1)">
       <defs>
        <path id="DejaVuSans-2212" d="M 678 2272 
L 4684 2272 
L 4684 1741 
L 678 1741 
L 678 2272 
z
" transform="scale(0.015625)"/>
        <path id="DejaVuSans-35" d="M 691 4666 
L 3169 4666 
L 3169 4134 
L 1269 4134 
L 1269 2991 
Q 1406 3038 1543 3061 
Q 1681 3084 1819 3084 
Q 2600 3084 3056 2656 
Q 3513 2228 3513 1497 
Q 3513 744 3044 326 
Q 2575 -91 1722 -91 
Q 1428 -91 1123 -41 
Q 819 9 494 109 
L 494 744 
Q 775 591 1075 516 
Q 1375 441 1709 441 
Q 2250 441 2565 725 
Q 2881 1009 2881 1497 
Q 2881 1984 2565 2268 
Q 2250 2553 1709 2553 
Q 1456 2553 1204 2497 
Q 953 2441 691 2322 
L 691 4666 
z
" transform="scale(0.015625)"/>
        <path id="DejaVuSans-30" d="M 2034 4250 
Q 1547 4250 1301 3770 
Q 1056 3291 1056 2328 
Q 1056 1369 1301 889 
Q 1547 409 2034 409 
Q 2525 409 2770 889 
Q 3016 1369 3016 2328 
Q 3016 3291 2770 3770 
Q 2525 4250 2034 4250 
z
M 2034 4750 
Q 2819 4750 3233 4129 
Q 3647 3509 3647 2328 
Q 3647 1150 3233 529 
Q 2819 -91 2034 -91 
Q 1250 -91 836 529 
Q 422 1150 422 2328 
Q 422 3509 836 4129 
Q 1250 4750 2034 4750 
z
" transform="scale(0.015625)"/>
       </defs>
       <use xlink:href="#DejaVuSans-2212"/>
       <use xlink:href="#DejaVuSans-35" x="83.789062"/>
       <use xlink:href="#DejaVuSans-30" x="147.412109"/>
      </g>
     </g>
    </g>
    <g id="xtick_2">
     <g id="line2d_2">
      <g>
       <use xlink:href="#me3ecdb63fa" x="144.810543" y="273.312" style="stroke: #000000; stroke-width: 0.8"/>
      </g>
     </g>
     <g id="text_2">
      <!-- −40 -->
      <g transform="translate(134.258199 287.910437) scale(0.1 -0.1)">
       <defs>
        <path id="DejaVuSans-34" d="M 2419 4116 
L 825 1625 
L 2419 1625 
L 2419 4116 
z
M 2253 4666 
L 3047 4666 
L 3047 1625 
L 3713 1625 
L 3713 1100 
L 3047 1100 
L 3047 0 
L 2419 0 
L 2419 1100 
L 313 1100 
L 313 1709 
L 2253 4666 
z
" transform="scale(0.015625)"/>
       </defs>
       <use xlink:href="#DejaVuSans-2212"/>
       <use xlink:href="#DejaVuSans-34" x="83.789062"/>
       <use xlink:href="#DejaVuSans-30" x="147.412109"/>
      </g>
     </g>
    </g>
    <g id="xtick_3">
     <g id="line2d_3">
      <g>
       <use xlink:href="#me3ecdb63fa" x="204.252901" y="273.312" style="stroke: #000000; stroke-width: 0.8"/>
      </g>
     </g>
     <g id="text_3">
      <!-- −30 -->
      <g transform="translate(193.700557 287.910437) scale(0.1 -0.1)">
       <defs>
        <path id="DejaVuSans-33" d="M 2597 2516 
Q 3050 2419 3304 2112 
Q 3559 1806 3559 1356 
Q 3559 666 3084 287 
Q 2609 -91 1734 -91 
Q 1441 -91 1130 -33 
Q 819 25 488 141 
L 488 750 
Q 750 597 1062 519 
Q 1375 441 1716 441 
Q 2309 441 2620 675 
Q 2931 909 2931 1356 
Q 2931 1769 2642 2001 
Q 2353 2234 1838 2234 
L 1294 2234 
L 1294 2753 
L 1863 2753 
Q 2328 2753 2575 2939 
Q 2822 3125 2822 3475 
Q 2822 3834 2567 4026 
Q 2313 4219 1838 4219 
Q 1578 4219 1281 4162 
Q 984 4106 628 3988 
L 628 4550 
Q 988 4650 1302 4700 
Q 1616 4750 1894 4750 
Q 2613 4750 3031 4423 
Q 3450 4097 3450 3541 
Q 3450 3153 3228 2886 
Q 3006 2619 2597 2516 
z
" transform="scale(0.015625)"/>
       </defs>
       <use xlink:href="#DejaVuSans-2212"/>
       <use xlink:href="#DejaVuSans-33" x="83.789062"/>
       <use xlink:href="#DejaVuSans-30" x="147.412109"/>
      </g>
     </g>
    </g>
    <g id="xtick_4">
     <g id="line2d_4">
      <g>
       <use xlink:href="#me3ecdb63fa" x="263.695259" y="273.312" style="stroke: #000000; stroke-width: 0.8"/>
      </g>
     </g>
     <g id="text_4">
      <!-- −20 -->
      <g transform="translate(253.142916 287.910437) scale(0.1 -0.1)">
       <defs>
        <path id="DejaVuSans-32" d="M 1228 531 
L 3431 531 
L 3431 0 
L 469 0 
L 469 531 
Q 828 903 1448 1529 
Q 2069 2156 2228 2338 
Q 2531 2678 2651 2914 
Q 2772 3150 2772 3378 
Q 2772 3750 2511 3984 
Q 2250 4219 1831 4219 
Q 1534 4219 1204 4116 
Q 875 4013 500 3803 
L 500 4441 
Q 881 4594 1212 4672 
Q 1544 4750 1819 4750 
Q 2544 4750 2975 4387 
Q 3406 4025 3406 3419 
Q 3406 3131 3298 2873 
Q 3191 2616 2906 2266 
Q 2828 2175 2409 1742 
Q 1991 1309 1228 531 
z
" transform="scale(0.015625)"/>
       </defs>
       <use xlink:href="#DejaVuSans-2212"/>
       <use xlink:href="#DejaVuSans-32" x="83.789062"/>
       <use xlink:href="#DejaVuSans-30" x="147.412109"/>
      </g>
     </g>
    </g>
    <g id="xtick_5">
     <g id="line2d_5">
      <g>
       <use xlink:href="#me3ecdb63fa" x="323.137618" y="273.312" style="stroke: #000000; stroke-width: 0.8"/>
      </g>
     </g>
     <g id="text_5">
      <!-- −10 -->
      <g transform="translate(312.585274 287.910437) scale(0.1 -0.1)">
       <defs>
        <path id="DejaVuSans-31" d="M 794 531 
L 1825 531 
L 1825 4091 
L 703 3866 
L 703 4441 
L 1819 4666 
L 2450 4666 
L 2450 531 
L 3481 531 
L 3481 0 
L 794 0 
L 794 531 
z
" transform="scale(0.015625)"/>
       </defs>
       <use xlink:href="#DejaVuSans-2212"/>
       <use xlink:href="#DejaVuSans-31" x="83.789062"/>
       <use xlink:href="#DejaVuSans-30" x="147.412109"/>
      </g>
     </g>
    </g>
    <g id="xtick_6">
     <g id="line2d_6">
      <g>
       <use xlink:href="#me3ecdb63fa" x="382.579976" y="273.312" style="stroke: #000000; stroke-width: 0.8"/>
      </g>
     </g>
     <g id="text_6">
      <!-- 0 -->
      <g transform="translate(379.398726 287.910437) scale(0.1 -0.1)">
       <use xlink:href="#DejaVuSans-30"/>
      </g>
     </g>
    </g>
    <g id="text_7">
     <!-- Latitude -->
     <g transform="translate(198.584219 301.588562) scale(0.1 -0.1)">
      <defs>
       <path id="DejaVuSans-4c" d="M 628 4666 
L 1259 4666 
L 1259 531 
L 3531 531 
L 3531 0 
L 628 0 
L 628 4666 
z
" transform="scale(0.015625)"/>
       <path id="DejaVuSans-61" d="M 2194 1759 
Q 1497 1759 1228 1600 
Q 959 1441 959 1056 
Q 959 750 1161 570 
Q 1363 391 1709 391 
Q 2188 391 2477 730 
Q 2766 1069 2766 1631 
L 2766 1759 
L 2194 1759 
z
M 3341 1997 
L 3341 0 
L 2766 0 
L 2766 531 
Q 2569 213 2275 61 
Q 1981 -91 1556 -91 
Q 1019 -91 701 211 
Q 384 513 384 1019 
Q 384 1609 779 1909 
Q 1175 2209 1959 2209 
L 2766 2209 
L 2766 2266 
Q 2766 2663 2505 2880 
Q 2244 3097 1772 3097 
Q 1472 3097 1187 3025 
Q 903 2953 641 2809 
L 641 3341 
Q 956 3463 1253 3523 
Q 1550 3584 1831 3584 
Q 2591 3584 2966 3190 
Q 3341 2797 3341 1997 
z
" transform="scale(0.015625)"/>
       <path id="DejaVuSans-74" d="M 1172 4494 
L 1172 3500 
L 2356 3500 
L 2356 3053 
L 1172 3053 
L 1172 1153 
Q 1172 725 1289 603 
Q 1406 481 1766 481 
L 2356 481 
L 2356 0 
L 1766 0 
Q 1100 0 847 248 
Q 594 497 594 1153 
L 594 3053 
L 172 3053 
L 172 3500 
L 594 3500 
L 594 4494 
L 1172 4494 
z
" transform="scale(0.015625)"/>
       <path id="DejaVuSans-69" d="M 603 3500 
L 1178 3500 
L 1178 0 
L 603 0 
L 603 3500 
z
M 603 4863 
L 1178 4863 
L 1178 4134 
L 603 4134 
L 603 4863 
z
" transform="scale(0.015625)"/>
       <path id="DejaVuSans-75" d="M 544 1381 
L 544 3500 
L 1119 3500 
L 1119 1403 
Q 1119 906 1312 657 
Q 1506 409 1894 409 
Q 2359 409 2629 706 
Q 2900 1003 2900 1516 
L 2900 3500 
L 3475 3500 
L 3475 0 
L 2900 0 
L 2900 538 
Q 2691 219 2414 64 
Q 2138 -91 1772 -91 
Q 1169 -91 856 284 
Q 544 659 544 1381 
z
M 1991 3584 
L 1991 3584 
z
" transform="scale(0.015625)"/>
       <path id="DejaVuSans-64" d="M 2906 2969 
L 2906 4863 
L 3481 4863 
L 3481 0 
L 2906 0 
L 2906 525 
Q 2725 213 2448 61 
Q 2172 -91 1784 -91 
Q 1150 -91 751 415 
Q 353 922 353 1747 
Q 353 2572 751 3078 
Q 1150 3584 1784 3584 
Q 2172 3584 2448 3432 
Q 2725 3281 2906 2969 
z
M 947 1747 
Q 947 1113 1208 752 
Q 1469 391 1925 391 
Q 2381 391 2643 752 
Q 2906 1113 2906 1747 
Q 2906 2381 2643 2742 
Q 2381 3103 1925 3103 
Q 1469 3103 1208 2742 
Q 947 2381 947 1747 
z
" transform="scale(0.015625)"/>
       <path id="DejaVuSans-65" d="M 3597 1894 
L 3597 1613 
L 953 1613 
Q 991 1019 1311 708 
Q 1631 397 2203 397 
Q 2534 397 2845 478 
Q 3156 559 3463 722 
L 3463 178 
Q 3153 47 2828 -22 
Q 2503 -91 2169 -91 
Q 1331 -91 842 396 
Q 353 884 353 1716 
Q 353 2575 817 3079 
Q 1281 3584 2069 3584 
Q 2775 3584 3186 3129 
Q 3597 2675 3597 1894 
z
M 3022 2063 
Q 3016 2534 2758 2815 
Q 2500 3097 2075 3097 
Q 1594 3097 1305 2825 
Q 1016 2553 972 2059 
L 3022 2063 
z
" transform="scale(0.015625)"/>
      </defs>
      <use xlink:href="#DejaVuSans-4c"/>
      <use xlink:href="#DejaVuSans-61" x="55.712891"/>
      <use xlink:href="#DejaVuSans-74" x="116.992188"/>
      <use xlink:href="#DejaVuSans-69" x="156.201172"/>
      <use xlink:href="#DejaVuSans-74" x="183.984375"/>
      <use xlink:href="#DejaVuSans-75" x="223.193359"/>
      <use xlink:href="#DejaVuSans-64" x="286.572266"/>
      <use xlink:href="#DejaVuSans-65" x="350.048828"/>
     </g>
    </g>
   </g>
   <g id="matplotlib.axis_2">
    <g id="ytick_1">
     <g id="line2d_7">
      <defs>
       <path id="mc9878f58e8" d="M 0 0 
L -3.5 0 
" style="stroke: #000000; stroke-width: 0.8"/>
      </defs>
      <g>
       <use xlink:href="#mc9878f58e8" x="40.603125" y="261.216" style="stroke: #000000; stroke-width: 0.8"/>
      </g>
     </g>
     <g id="text_8">
      <!-- 0 -->
      <g transform="translate(27.240625 265.015219) scale(0.1 -0.1)">
       <use xlink:href="#DejaVuSans-30"/>
      </g>
     </g>
    </g>
    <g id="ytick_2">
     <g id="line2d_8">
      <g>
       <use xlink:href="#mc9878f58e8" x="40.603125" y="216.047964" style="stroke: #000000; stroke-width: 0.8"/>
      </g>
     </g>
     <g id="text_9">
      <!-- 5 -->
      <g transform="translate(27.240625 219.847183) scale(0.1 -0.1)">
       <use xlink:href="#DejaVuSans-35"/>
      </g>
     </g>
    </g>
    <g id="ytick_3">
     <g id="line2d_9">
      <g>
       <use xlink:href="#mc9878f58e8" x="40.603125" y="170.879928" style="stroke: #000000; stroke-width: 0.8"/>
      </g>
     </g>
     <g id="text_10">
      <!-- 10 -->
      <g transform="translate(20.878125 174.679147) scale(0.1 -0.1)">
       <use xlink:href="#DejaVuSans-31"/>
       <use xlink:href="#DejaVuSans-30" x="63.623047"/>
      </g>
     </g>
    </g>
    <g id="ytick_4">
     <g id="line2d_10">
      <g>
       <use xlink:href="#mc9878f58e8" x="40.603125" y="125.711892" style="stroke: #000000; stroke-width: 0.8"/>
      </g>
     </g>
     <g id="text_11">
      <!-- 15 -->
      <g transform="translate(20.878125 129.511111) scale(0.1 -0.1)">
       <use xlink:href="#DejaVuSans-31"/>
       <use xlink:href="#DejaVuSans-35" x="63.623047"/>
      </g>
     </g>
    </g>
    <g id="ytick_5">
     <g id="line2d_11">
      <g>
       <use xlink:href="#mc9878f58e8" x="40.603125" y="80.543857" style="stroke: #000000; stroke-width: 0.8"/>
      </g>
     </g>
     <g id="text_12">
      <!-- 20 -->
      <g transform="translate(20.878125 84.343075) scale(0.1 -0.1)">
       <use xlink:href="#DejaVuSans-32"/>
       <use xlink:href="#DejaVuSans-30" x="63.623047"/>
      </g>
     </g>
    </g>
    <g id="ytick_6">
     <g id="line2d_12">
      <g>
       <use xlink:href="#mc9878f58e8" x="40.603125" y="35.375821" style="stroke: #000000; stroke-width: 0.8"/>
      </g>
     </g>
     <g id="text_13">
      <!-- 25 -->
      <g transform="translate(20.878125 39.17504) scale(0.1 -0.1)">
       <use xlink:href="#DejaVuSans-32"/>
       <use xlink:href="#DejaVuSans-35" x="63.623047"/>
      </g>
     </g>
    </g>
    <g id="text_14">
     <!-- Wind Speed -->
     <g transform="translate(14.798438 170.084125) rotate(-90) scale(0.1 -0.1)">
      <defs>
       <path id="DejaVuSans-57" d="M 213 4666 
L 850 4666 
L 1831 722 
L 2809 4666 
L 3519 4666 
L 4500 722 
L 5478 4666 
L 6119 4666 
L 4947 0 
L 4153 0 
L 3169 4050 
L 2175 0 
L 1381 0 
L 213 4666 
z
" transform="scale(0.015625)"/>
       <path id="DejaVuSans-6e" d="M 3513 2113 
L 3513 0 
L 2938 0 
L 2938 2094 
Q 2938 2591 2744 2837 
Q 2550 3084 2163 3084 
Q 1697 3084 1428 2787 
Q 1159 2491 1159 1978 
L 1159 0 
L 581 0 
L 581 3500 
L 1159 3500 
L 1159 2956 
Q 1366 3272 1645 3428 
Q 1925 3584 2291 3584 
Q 2894 3584 3203 3211 
Q 3513 2838 3513 2113 
z
" transform="scale(0.015625)"/>
       <path id="DejaVuSans-20" transform="scale(0.015625)"/>
       <path id="DejaVuSans-53" d="M 3425 4513 
L 3425 3897 
Q 3066 4069 2747 4153 
Q 2428 4238 2131 4238 
Q 1616 4238 1336 4038 
Q 1056 3838 1056 3469 
Q 1056 3159 1242 3001 
Q 1428 2844 1947 2747 
L 2328 2669 
Q 3034 2534 3370 2195 
Q 3706 1856 3706 1288 
Q 3706 609 3251 259 
Q 2797 -91 1919 -91 
Q 1588 -91 1214 -16 
Q 841 59 441 206 
L 441 856 
Q 825 641 1194 531 
Q 1563 422 1919 422 
Q 2459 422 2753 634 
Q 3047 847 3047 1241 
Q 3047 1584 2836 1778 
Q 2625 1972 2144 2069 
L 1759 2144 
Q 1053 2284 737 2584 
Q 422 2884 422 3419 
Q 422 4038 858 4394 
Q 1294 4750 2059 4750 
Q 2388 4750 2728 4690 
Q 3069 4631 3425 4513 
z
" transform="scale(0.015625)"/>
       <path id="DejaVuSans-70" d="M 1159 525 
L 1159 -1331 
L 581 -1331 
L 581 3500 
L 1159 3500 
L 1159 2969 
Q 1341 3281 1617 3432 
Q 1894 3584 2278 3584 
Q 2916 3584 3314 3078 
Q 3713 2572 3713 1747 
Q 3713 922 3314 415 
Q 2916 -91 2278 -91 
Q 1894 -91 1617 61 
Q 1341 213 1159 525 
z
M 3116 1747 
Q 3116 2381 2855 2742 
Q 2594 3103 2138 3103 
Q 1681 3103 1420 2742 
Q 1159 2381 1159 1747 
Q 1159 1113 1420 752 
Q 1681 391 2138 391 
Q 2594 391 2855 752 
Q 3116 1113 3116 1747 
z
" transform="scale(0.015625)"/>
      </defs>
      <use xlink:href="#DejaVuSans-57"/>
      <use xlink:href="#DejaVuSans-69" x="96.626953"/>
      <use xlink:href="#DejaVuSans-6e" x="124.410156"/>
      <use xlink:href="#DejaVuSans-64" x="187.789062"/>
      <use xlink:href="#DejaVuSans-20" x="251.265625"/>
      <use xlink:href="#DejaVuSans-53" x="283.052734"/>
      <use xlink:href="#DejaVuSans-70" x="346.529297"/>
      <use xlink:href="#DejaVuSans-65" x="410.005859"/>
      <use xlink:href="#DejaVuSans-65" x="471.529297"/>
      <use xlink:href="#DejaVuSans-64" x="533.052734"/>
     </g>
    </g>
   </g>
   <g id="line2d_13">
    <path d="M 180.456342 176.117441 
L 381.490398 230.688422 
L 56.835852 142.560483 
L 278.357906 202.69296 
" clip-path="url(#p89bbafb8b9)" style="fill: none; stroke: #ff0000; stroke-width: 1.5; stroke-linecap: square"/>
   </g>
   <g id="patch_3">
    <path d="M 40.603125 273.312 
L 40.603125 7.2 
" style="fill: none; stroke: #000000; stroke-width: 0.8; stroke-linejoin: miter; stroke-linecap: square"/>
   </g>
   <g id="patch_4">
    <path d="M 397.723125 273.312 
L 397.723125 7.2 
" style="fill: none; stroke: #000000; stroke-width: 0.8; stroke-linejoin: miter; stroke-linecap: square"/>
   </g>
   <g id="patch_5">
    <path d="M 40.603125 273.312 
L 397.723125 273.312 
" style="fill: none; stroke: #000000; stroke-width: 0.8; stroke-linejoin: miter; stroke-linecap: square"/>
   </g>
   <g id="patch_6">
    <path d="M 40.603125 7.2 
L 397.723125 7.2 
" style="fill: none; stroke: #000000; stroke-width: 0.8; stroke-linejoin: miter; stroke-linecap: square"/>
   </g>
   <g id="text_15">
    <!-- y = -0.18x + 3.35 -->
    <g style="fill: #ff0000" transform="translate(233.97408 35.375821) scale(0.15 -0.15)">
     <defs>
      <path id="DejaVuSans-79" d="M 2059 -325 
Q 1816 -950 1584 -1140 
Q 1353 -1331 966 -1331 
L 506 -1331 
L 506 -850 
L 844 -850 
Q 1081 -850 1212 -737 
Q 1344 -625 1503 -206 
L 1606 56 
L 191 3500 
L 800 3500 
L 1894 763 
L 2988 3500 
L 3597 3500 
L 2059 -325 
z
" transform="scale(0.015625)"/>
      <path id="DejaVuSans-3d" d="M 678 2906 
L 4684 2906 
L 4684 2381 
L 678 2381 
L 678 2906 
z
M 678 1631 
L 4684 1631 
L 4684 1100 
L 678 1100 
L 678 1631 
z
" transform="scale(0.015625)"/>
      <path id="DejaVuSans-2d" d="M 313 2009 
L 1997 2009 
L 1997 1497 
L 313 1497 
L 313 2009 
z
" transform="scale(0.015625)"/>
      <path id="DejaVuSans-2e" d="M 684 794 
L 1344 794 
L 1344 0 
L 684 0 
L 684 794 
z
" transform="scale(0.015625)"/>
      <path id="DejaVuSans-38" d="M 2034 2216 
Q 1584 2216 1326 1975 
Q 1069 1734 1069 1313 
Q 1069 891 1326 650 
Q 1584 409 2034 409 
Q 2484 409 2743 651 
Q 3003 894 3003 1313 
Q 3003 1734 2745 1975 
Q 2488 2216 2034 2216 
z
M 1403 2484 
Q 997 2584 770 2862 
Q 544 3141 544 3541 
Q 544 4100 942 4425 
Q 1341 4750 2034 4750 
Q 2731 4750 3128 4425 
Q 3525 4100 3525 3541 
Q 3525 3141 3298 2862 
Q 3072 2584 2669 2484 
Q 3125 2378 3379 2068 
Q 3634 1759 3634 1313 
Q 3634 634 3220 271 
Q 2806 -91 2034 -91 
Q 1263 -91 848 271 
Q 434 634 434 1313 
Q 434 1759 690 2068 
Q 947 2378 1403 2484 
z
M 1172 3481 
Q 1172 3119 1398 2916 
Q 1625 2713 2034 2713 
Q 2441 2713 2670 2916 
Q 2900 3119 2900 3481 
Q 2900 3844 2670 4047 
Q 2441 4250 2034 4250 
Q 1625 4250 1398 4047 
Q 1172 3844 1172 3481 
z
" transform="scale(0.015625)"/>
      <path id="DejaVuSans-78" d="M 3513 3500 
L 2247 1797 
L 3578 0 
L 2900 0 
L 1881 1375 
L 863 0 
L 184 0 
L 1544 1831 
L 300 3500 
L 978 3500 
L 1906 2253 
L 2834 3500 
L 3513 3500 
z
" transform="scale(0.015625)"/>
      <path id="DejaVuSans-2b" d="M 2944 4013 
L 2944 2272 
L 4684 2272 
L 4684 1741 
L 2944 1741 
L 2944 0 
L 2419 0 
L 2419 1741 
L 678 1741 
L 678 2272 
L 2419 2272 
L 2419 4013 
L 2944 4013 
z
" transform="scale(0.015625)"/>
     </defs>
     <use xlink:href="#DejaVuSans-79"/>
     <use xlink:href="#DejaVuSans-20" x="59.179688"/>
     <use xlink:href="#DejaVuSans-3d" x="90.966797"/>
     <use xlink:href="#DejaVuSans-20" x="174.755859"/>
     <use xlink:href="#DejaVuSans-2d" x="206.542969"/>
     <use xlink:href="#DejaVuSans-30" x="242.626953"/>
     <use xlink:href="#DejaVuSans-2e" x="306.25"/>
     <use xlink:href="#DejaVuSans-31" x="338.037109"/>
     <use xlink:href="#DejaVuSans-38" x="401.660156"/>
     <use xlink:href="#DejaVuSans-78" x="465.283203"/>
     <use xlink:href="#DejaVuSans-20" x="524.462891"/>
     <use xlink:href="#DejaVuSans-2b" x="556.25"/>
     <use xlink:href="#DejaVuSans-20" x="640.039062"/>
     <use xlink:href="#DejaVuSans-33" x="671.826172"/>
     <use xlink:href="#DejaVuSans-2e" x="735.449219"/>
     <use xlink:href="#DejaVuSans-33" x="767.236328"/>
     <use xlink:href="#DejaVuSans-35" x="830.859375"/>
    </g>
   </g>
  </g>
 </g>
 <defs>
  <clipPath id="p89bbafb8b9">
   <rect x="40.603125" y="7.2" width="357.12" height="266.112"/>
  </clipPath>
 </defs>
</svg>
